<?xml version="1.0" encoding="utf-8" ?>
<svg baseProfile="full" height="1920px" preserveAspectRatio="xMidYMid meet" version="1.1" viewBox="0,0,1080,1920" width="1080px" xmlns="http://www.w3.org/2000/svg" xmlns:ev="http://www.w3.org/2001/xml-events" xmlns:xlink="http://www.w3.org/1999/xlink"><defs /><path d="M 0 0 L 0 1919 L 1079 1919 L 1079 0 Z" fill="rgb(253,253,253)" id="path_e54fb2" stroke="none" /><path d="M 748 609 L 743 610 L 745 627 L 754 613 L 754 611 Z" fill="rgb(142,48,55)" id="path_e01707" stroke="none" /><path d="M 909 404 L 907 409 L 907 419 L 902 436 L 893 453 L 889 455 L 884 472 L 877 473 L 869 469 L 854 456 L 851 456 L 851 482 L 846 514 L 840 539 L 825 579 L 838 587 L 837 585 L 847 567 L 848 571 L 840 588 L 846 595 L 866 555 L 881 513 L 883 512 L 884 514 L 868 564 L 859 582 L 848 598 L 849 602 L 854 598 L 855 594 L 859 591 L 859 588 L 864 585 L 869 574 L 875 568 L 877 562 L 880 561 L 882 553 L 890 542 L 890 539 L 895 532 L 903 514 L 916 440 L 915 422 L 913 412 Z" fill="rgb(142,48,55)" id="path_abf7c8" stroke="none" /><path d="M 922 343 L 910 349 L 904 355 L 899 365 L 899 370 L 902 371 L 903 375 L 902 381 L 904 388 L 916 405 L 920 420 L 921 433 L 919 460 L 916 466 L 916 475 L 912 487 L 913 496 L 912 497 L 910 495 L 912 497 L 912 501 L 909 501 L 909 511 L 907 513 L 906 521 L 908 557 L 911 558 L 909 565 L 910 567 L 913 567 L 913 575 L 917 585 L 919 586 L 920 590 L 925 592 L 923 595 L 929 601 L 928 604 L 932 605 L 936 614 L 941 619 L 962 634 L 955 612 L 956 594 L 960 584 L 973 562 L 1034 501 L 1033 499 L 1036 496 L 1044 472 L 1046 457 L 1045 431 L 1040 414 L 1031 397 L 1005 369 L 979 354 L 952 346 L 952 343 L 948 343 L 947 345 L 945 343 Z" fill="rgb(142,48,55)" id="path_6016cb" stroke="none" /><path d="M 271 277 L 265 289 L 259 312 L 258 333 L 259 345 L 261 348 L 259 351 L 269 368 L 269 371 L 286 397 L 285 399 L 294 410 L 295 416 L 299 419 L 299 423 L 303 428 L 303 432 L 310 447 L 310 472 L 304 487 L 295 500 L 301 499 L 318 491 L 321 487 L 324 487 L 331 482 L 333 478 L 335 480 L 335 475 L 338 473 L 340 474 L 340 470 L 350 463 L 353 458 L 351 445 L 334 400 L 328 377 L 335 426 L 335 439 L 332 460 L 329 467 L 327 467 L 329 458 L 330 433 L 323 377 L 323 353 L 328 317 L 336 292 L 346 272 L 356 257 L 365 247 L 368 247 L 368 250 L 361 257 L 350 274 L 340 294 L 333 317 L 330 337 L 330 364 L 333 382 L 357 458 L 361 457 L 361 446 L 354 406 L 355 405 L 358 409 L 363 428 L 365 452 L 368 453 L 371 451 L 373 433 L 370 382 L 372 380 L 371 373 L 375 367 L 377 359 L 375 353 L 377 352 L 379 354 L 385 340 L 384 334 L 386 333 L 388 336 L 389 332 L 396 324 L 394 322 L 401 318 L 400 314 L 405 314 L 408 311 L 408 308 L 411 305 L 413 306 L 421 299 L 426 291 L 430 288 L 435 288 L 439 284 L 441 285 L 442 281 L 446 283 L 445 281 L 448 280 L 447 277 L 449 275 L 451 276 L 451 279 L 454 275 L 457 276 L 458 274 L 461 274 L 473 267 L 476 270 L 474 282 L 477 282 L 477 286 L 473 288 L 472 299 L 473 303 L 476 305 L 476 312 L 474 314 L 477 312 L 479 319 L 477 320 L 476 328 L 479 330 L 484 341 L 482 344 L 484 342 L 486 343 L 486 349 L 493 360 L 496 360 L 498 368 L 500 368 L 501 371 L 503 370 L 505 375 L 515 385 L 521 387 L 522 391 L 527 393 L 529 392 L 533 398 L 553 408 L 558 408 L 567 415 L 578 415 L 579 418 L 581 417 L 582 419 L 596 423 L 597 425 L 605 424 L 615 432 L 624 432 L 625 435 L 630 436 L 633 439 L 643 441 L 646 445 L 650 444 L 659 451 L 662 448 L 663 453 L 671 457 L 680 465 L 682 464 L 683 467 L 691 475 L 693 475 L 697 481 L 703 481 L 701 485 L 707 494 L 709 493 L 711 473 L 709 472 L 708 457 L 705 456 L 707 451 L 705 452 L 703 449 L 706 446 L 703 444 L 704 439 L 699 431 L 702 427 L 704 427 L 707 433 L 710 432 L 714 437 L 717 437 L 729 451 L 732 450 L 734 458 L 737 459 L 736 462 L 740 466 L 742 464 L 745 468 L 745 470 L 742 471 L 744 473 L 745 481 L 749 486 L 749 494 L 752 495 L 751 506 L 754 519 L 752 538 L 757 545 L 756 549 L 766 565 L 780 583 L 797 576 L 811 576 L 812 562 L 815 556 L 819 528 L 819 461 L 802 480 L 792 485 L 786 481 L 781 465 L 768 447 L 758 421 L 755 405 L 756 376 L 754 374 L 745 373 L 736 369 L 711 363 L 686 353 L 651 335 L 632 321 L 635 320 L 652 331 L 683 346 L 729 364 L 742 367 L 753 372 L 756 372 L 758 366 L 713 351 L 668 331 L 636 311 L 606 285 L 608 283 L 633 304 L 673 328 L 722 350 L 755 362 L 759 362 L 763 350 L 769 340 L 767 332 L 761 326 L 760 322 L 755 319 L 746 306 L 743 305 L 735 296 L 731 295 L 727 290 L 722 288 L 718 283 L 704 273 L 691 267 L 688 263 L 660 250 L 646 246 L 638 241 L 633 241 L 621 236 L 605 234 L 598 231 L 587 230 L 575 225 L 546 224 L 539 221 L 466 221 L 449 223 L 447 225 L 434 225 L 402 233 L 392 241 L 388 241 L 391 238 L 390 237 L 371 245 L 369 248 L 366 245 L 369 240 L 367 239 L 354 241 L 326 252 L 311 263 L 299 277 L 293 289 L 288 305 L 288 311 L 286 313 L 285 306 L 291 284 L 300 268 L 309 258 L 326 246 L 338 241 L 358 236 L 375 235 L 384 226 L 385 223 L 382 222 L 381 224 L 352 225 L 316 236 L 303 243 L 289 254 Z" fill="rgb(142,48,55)" id="path_22b086" stroke="none" /><path d="M 460 190 L 463 191 L 481 186 L 513 184 L 574 186 L 578 188 L 606 191 L 645 202 L 666 204 L 677 208 L 700 212 L 731 225 L 749 235 L 752 238 L 750 239 L 704 219 L 682 213 L 676 213 L 703 225 L 717 234 L 747 245 L 768 255 L 794 270 L 817 288 L 818 290 L 816 291 L 776 265 L 740 247 L 738 248 L 777 281 L 811 322 L 832 362 L 836 374 L 839 374 L 847 369 L 859 367 L 878 350 L 889 349 L 890 343 L 878 335 L 866 329 L 844 323 L 846 321 L 859 322 L 872 326 L 895 342 L 911 337 L 910 330 L 905 320 L 898 310 L 882 296 L 883 294 L 888 296 L 903 309 L 913 325 L 916 336 L 921 336 L 915 316 L 913 317 L 910 311 L 912 309 L 910 311 L 898 291 L 885 273 L 843 230 L 839 230 L 839 227 L 835 224 L 835 222 L 831 224 L 831 220 L 829 222 L 784 193 L 722 167 L 683 157 L 682 159 L 681 156 L 676 155 L 674 157 L 670 157 L 670 154 L 667 151 L 665 151 L 665 153 L 668 154 L 668 156 L 657 155 L 657 153 L 663 153 L 663 151 L 652 150 L 648 151 L 656 152 L 656 154 L 593 153 L 565 156 L 524 165 L 481 180 Z" fill="rgb(142,48,55)" id="path_8fd34d" stroke="none" /><path d="M 373 1469 L 374 1488 L 376 1490 L 376 1501 L 381 1523 L 383 1551 L 385 1553 L 387 1583 L 389 1585 L 397 1680 L 399 1684 L 422 1686 L 427 1690 L 433 1691 L 435 1696 L 437 1694 L 439 1696 L 452 1696 L 460 1543 L 460 1490 L 462 1481 L 449 1482 L 426 1480 L 423 1478 L 409 1478 L 399 1475 L 392 1475 L 377 1469 Z" fill="rgb(253,191,171)" id="path_2bcb35" stroke="none" /><path d="M 656 1457 L 617 1471 L 609 1471 L 607 1473 L 592 1476 L 566 1478 L 589 1536 L 592 1540 L 594 1550 L 598 1555 L 598 1560 L 603 1570 L 606 1583 L 610 1587 L 611 1598 L 615 1602 L 617 1614 L 620 1617 L 623 1631 L 626 1635 L 627 1646 L 631 1650 L 637 1677 L 641 1682 L 642 1695 L 646 1703 L 650 1704 L 666 1696 L 686 1694 L 690 1690 L 691 1694 L 694 1696 L 700 1695 L 698 1690 L 697 1666 L 695 1663 L 692 1634 L 689 1630 L 687 1603 L 684 1599 L 681 1572 L 678 1567 L 675 1538 L 672 1535 L 672 1523 L 668 1519 L 668 1509 L 664 1491 L 661 1486 L 660 1475 L 657 1471 Z" fill="rgb(253,191,171)" id="path_f209b8" stroke="none" /><path d="M 796 1232 L 802 1247 L 802 1253 L 805 1251 L 808 1254 L 817 1255 L 816 1251 Z" fill="rgb(253,191,171)" id="path_cb842c" stroke="none" /><path d="M 647 827 L 640 834 L 632 847 L 631 855 L 627 860 L 621 877 L 617 901 L 618 940 L 620 945 L 623 940 L 629 918 L 631 916 L 633 917 L 633 921 L 647 950 L 673 1021 L 673 1025 L 678 1034 L 680 1045 L 685 1053 L 685 1061 L 689 1067 L 690 1078 L 695 1086 L 695 1093 L 701 1105 L 703 1119 L 706 1121 L 707 1135 L 711 1138 L 712 1147 L 716 1154 L 717 1164 L 721 1172 L 722 1183 L 725 1186 L 723 1229 L 725 1241 L 732 1258 L 729 1283 L 735 1282 L 737 1278 L 740 1277 L 746 1265 L 747 1250 L 752 1248 L 759 1255 L 761 1255 L 769 1265 L 771 1264 L 774 1270 L 801 1291 L 810 1293 L 812 1290 L 797 1275 L 778 1248 L 780 1246 L 790 1260 L 815 1286 L 816 1289 L 820 1287 L 821 1284 L 794 1249 L 787 1234 L 788 1231 L 790 1234 L 792 1233 L 775 1197 L 771 1195 L 772 1192 L 763 1180 L 760 1173 L 759 1159 L 756 1151 L 756 1138 L 754 1136 L 753 1122 L 751 1118 L 751 1106 L 748 1104 L 748 1092 L 745 1087 L 744 1074 L 741 1071 L 737 1043 L 731 1026 L 728 1023 L 724 997 L 720 991 L 719 979 L 715 974 L 714 962 L 709 950 L 704 929 L 698 917 L 698 910 L 693 902 L 692 891 L 685 874 L 682 861 L 670 841 L 666 840 L 661 834 Z" fill="rgb(253,191,171)" id="path_6248d6" stroke="none" /><path d="M 451 821 L 454 824 L 455 831 L 467 842 L 470 842 L 487 851 L 512 855 L 541 855 L 558 852 L 563 848 L 570 848 L 575 846 L 577 842 L 590 836 L 607 818 L 612 803 L 604 800 L 593 792 L 588 792 L 582 777 L 575 780 L 552 783 L 521 783 L 498 780 L 489 776 L 485 787 L 483 784 L 475 785 L 460 796 L 451 812 Z" fill="rgb(253,191,171)" id="path_a0c364" stroke="none" /><path d="M 617 623 L 617 631 L 627 636 L 656 635 L 657 628 L 625 627 L 623 622 Z" fill="rgb(253,191,171)" id="path_7747bb" stroke="none" /><path d="M 388 590 L 394 588 L 394 593 L 402 596 L 417 595 L 415 586 L 410 586 L 408 590 L 403 591 L 400 588 L 403 585 L 399 587 L 390 585 Z" fill="rgb(253,191,171)" id="path_a736d9" stroke="none" /><path d="M 353 571 L 352 580 L 349 585 L 349 617 L 353 626 L 353 637 L 370 675 L 375 680 L 378 687 L 387 697 L 391 699 L 392 703 L 419 727 L 424 728 L 429 734 L 437 736 L 442 740 L 447 741 L 451 745 L 457 746 L 467 752 L 472 752 L 478 756 L 488 757 L 491 760 L 494 760 L 495 763 L 504 763 L 506 765 L 529 768 L 579 770 L 591 767 L 607 767 L 610 764 L 622 764 L 623 762 L 628 763 L 631 762 L 633 758 L 652 751 L 668 741 L 693 715 L 701 703 L 710 681 L 712 680 L 712 674 L 715 671 L 721 648 L 722 634 L 724 631 L 727 614 L 726 613 L 713 624 L 707 626 L 695 636 L 671 646 L 670 648 L 673 650 L 674 655 L 671 658 L 666 658 L 664 660 L 666 663 L 664 666 L 664 672 L 657 672 L 655 676 L 641 676 L 638 672 L 618 670 L 615 664 L 610 664 L 609 658 L 611 655 L 608 652 L 608 649 L 615 646 L 609 645 L 607 642 L 599 641 L 591 635 L 585 633 L 568 616 L 561 604 L 559 595 L 554 589 L 554 580 L 551 576 L 550 550 L 543 543 L 527 535 L 514 535 L 501 540 L 498 545 L 492 567 L 481 582 L 464 598 L 455 604 L 449 605 L 442 609 L 433 610 L 431 612 L 416 611 L 414 615 L 417 619 L 407 622 L 393 622 L 391 617 L 386 615 L 384 616 L 380 606 L 377 605 L 379 604 L 380 600 L 359 583 L 358 578 Z" fill="rgb(253,191,171)" id="path_40eb68" stroke="none" /><path d="M 337 530 L 338 544 L 336 546 L 333 545 L 336 552 L 332 563 L 335 570 L 334 575 L 338 576 L 338 591 L 342 593 L 338 595 L 339 599 L 343 595 L 345 600 L 344 586 L 347 580 L 347 574 L 345 572 L 343 562 L 339 561 L 338 557 L 342 552 L 345 553 L 346 548 L 345 545 L 340 543 L 340 532 Z" fill="rgb(253,191,171)" id="path_3b856e" stroke="none" /><path d="M 214 520 L 211 526 L 213 539 L 221 562 L 220 566 L 223 567 L 225 575 L 223 576 L 221 572 L 212 564 L 202 545 L 196 545 L 194 551 L 199 565 L 210 586 L 213 588 L 214 592 L 218 594 L 218 600 L 221 605 L 221 610 L 228 629 L 235 638 L 241 642 L 242 682 L 246 723 L 253 757 L 258 772 L 265 785 L 265 789 L 272 794 L 275 800 L 307 811 L 319 812 L 323 816 L 336 816 L 339 819 L 352 820 L 354 822 L 366 822 L 370 826 L 383 826 L 385 828 L 399 829 L 402 832 L 415 832 L 419 818 L 424 814 L 433 796 L 450 780 L 453 780 L 454 777 L 448 775 L 433 775 L 430 773 L 417 773 L 415 770 L 402 770 L 399 768 L 385 767 L 382 765 L 354 763 L 351 759 L 338 759 L 334 756 L 321 755 L 322 761 L 321 762 L 319 760 L 313 735 L 285 674 L 277 653 L 275 642 L 276 635 L 281 630 L 280 627 L 288 621 L 297 593 L 300 574 L 307 565 L 307 561 L 297 561 L 291 567 L 288 577 L 284 583 L 271 593 L 265 603 L 264 600 L 268 592 L 279 583 L 273 551 L 274 518 L 272 513 L 264 512 L 261 518 L 260 548 L 258 549 L 257 553 L 256 548 L 253 548 L 247 510 L 244 506 L 237 508 L 235 513 L 238 547 L 241 557 L 240 563 L 235 559 L 229 544 L 227 543 L 228 541 L 221 522 L 218 519 Z" fill="rgb(253,191,171)" id="path_02fefc" stroke="none" /><path d="M 722 473 L 725 487 L 722 490 L 721 501 L 717 506 L 720 506 L 722 510 L 727 512 L 731 519 L 735 521 L 731 492 L 728 488 L 726 477 Z" fill="rgb(253,191,171)" id="path_cc6afb" stroke="none" /><path d="M 387 350 L 380 369 L 377 387 L 376 448 L 383 447 L 387 443 L 399 441 L 401 438 L 417 436 L 447 438 L 450 441 L 455 442 L 472 453 L 482 464 L 486 466 L 497 489 L 497 495 L 501 498 L 502 515 L 505 519 L 529 518 L 542 520 L 546 526 L 558 528 L 567 506 L 575 501 L 576 497 L 581 495 L 586 487 L 591 486 L 600 480 L 605 480 L 610 475 L 621 474 L 625 471 L 655 471 L 669 475 L 652 466 L 638 462 L 634 459 L 630 459 L 616 452 L 596 446 L 578 437 L 574 437 L 568 433 L 550 427 L 527 414 L 500 392 L 482 367 L 480 358 L 475 351 L 474 342 L 472 341 L 469 320 L 469 294 L 473 272 L 449 285 L 420 307 L 404 324 Z" fill="rgb(253,191,171)" id="path_cd7eb4" stroke="none" /><path d="M 462 778 L 449 785 L 438 796 L 424 818 L 421 828 L 417 834 L 408 874 L 395 915 L 387 957 L 384 989 L 376 1021 L 365 1047 L 365 1066 L 367 1066 L 369 1058 L 374 1053 L 388 1050 L 395 1053 L 400 1058 L 402 1069 L 399 1077 L 389 1078 L 389 1084 L 385 1090 L 382 1107 L 374 1104 L 363 1096 L 360 1098 L 333 1233 L 331 1252 L 326 1270 L 326 1278 L 323 1287 L 320 1312 L 316 1326 L 307 1386 L 318 1386 L 324 1391 L 328 1397 L 328 1407 L 326 1411 L 318 1418 L 310 1419 L 302 1416 L 302 1422 L 316 1435 L 330 1441 L 333 1444 L 362 1454 L 378 1456 L 383 1459 L 399 1461 L 401 1463 L 433 1466 L 458 1466 L 461 1468 L 519 1468 L 576 1463 L 578 1461 L 596 1459 L 601 1455 L 610 1456 L 619 1452 L 629 1451 L 636 1447 L 643 1447 L 664 1439 L 692 1422 L 703 1412 L 706 1407 L 702 1385 L 697 1373 L 696 1364 L 693 1358 L 669 1263 L 641 1132 L 629 1131 L 622 1127 L 621 1124 L 590 1130 L 574 1130 L 576 1122 L 576 1112 L 574 1107 L 575 1102 L 606 1098 L 636 1090 L 639 1079 L 639 1065 L 633 1031 L 634 1009 L 638 992 L 628 980 L 629 985 L 627 992 L 619 998 L 609 999 L 599 991 L 597 981 L 601 973 L 606 969 L 620 968 L 624 972 L 617 956 L 612 932 L 613 892 L 625 853 L 631 842 L 636 838 L 633 835 L 635 833 L 639 833 L 644 825 L 621 808 L 615 806 L 607 821 L 608 824 L 606 828 L 603 829 L 603 831 L 587 845 L 572 853 L 555 859 L 531 862 L 494 859 L 476 853 L 463 846 L 452 835 L 448 828 L 446 816 L 451 801 L 455 800 L 456 796 L 463 792 L 465 788 L 475 781 L 480 780 Z" fill="rgb(153,187,175)" id="path_da8892" stroke="none" /><path d="M 835 434 L 831 435 L 827 447 L 822 455 L 824 472 L 823 520 L 813 576 L 821 576 L 825 570 L 825 567 L 828 566 L 828 559 L 832 555 L 837 541 L 835 538 L 839 523 L 843 517 L 842 512 L 844 511 L 844 503 L 846 501 L 845 497 L 847 496 L 849 450 L 842 440 Z" fill="rgb(153,187,175)" id="path_7768db" stroke="none" /><path d="M 773 348 L 770 348 L 766 353 L 767 358 L 762 366 L 761 373 L 762 384 L 766 386 L 766 399 L 763 401 L 760 398 L 760 385 L 757 386 L 757 400 L 760 401 L 762 411 L 764 413 L 767 412 L 767 380 L 771 368 L 770 367 L 769 369 L 767 366 L 768 361 L 772 360 L 775 355 Z" fill="rgb(153,187,175)" id="path_b05e59" stroke="none" /><path d="M 375 238 L 376 240 L 379 240 L 376 238 L 377 237 L 382 239 L 385 235 L 388 236 L 394 232 L 397 233 L 423 225 L 480 217 L 535 217 L 565 220 L 594 225 L 634 235 L 669 248 L 714 273 L 741 295 L 765 321 L 777 337 L 772 345 L 776 344 L 778 348 L 780 348 L 783 344 L 787 346 L 830 391 L 837 391 L 839 388 L 835 386 L 836 378 L 832 373 L 832 368 L 826 361 L 825 353 L 820 350 L 821 346 L 819 346 L 816 342 L 817 338 L 814 336 L 815 334 L 813 331 L 810 330 L 809 324 L 802 319 L 803 316 L 794 308 L 795 306 L 790 303 L 791 301 L 784 297 L 784 293 L 780 294 L 777 289 L 779 287 L 771 279 L 768 279 L 768 276 L 765 273 L 763 275 L 757 266 L 755 267 L 748 261 L 748 258 L 744 255 L 741 256 L 740 253 L 738 253 L 737 250 L 718 237 L 715 238 L 708 231 L 704 231 L 703 228 L 699 229 L 697 225 L 691 222 L 689 223 L 686 220 L 683 221 L 680 217 L 673 214 L 666 214 L 663 210 L 641 203 L 636 204 L 636 201 L 603 193 L 568 188 L 561 189 L 560 187 L 497 187 L 481 189 L 454 195 L 450 194 L 447 197 L 425 204 L 393 222 L 382 231 L 382 236 L 379 234 Z" fill="rgb(153,187,175)" id="path_49bd7a" stroke="none" /><path d="M 519 1103 L 519 1123 L 517 1132 L 562 1132 L 564 1130 L 565 1120 L 564 1107 L 562 1103 Z" fill="rgb(93,98,98)" id="path_062894" stroke="none" /><path d="M 636 1091 L 606 1099 L 575 1103 L 577 1112 L 575 1130 L 608 1126 L 636 1117 L 638 1115 Z" fill="rgb(93,98,98)" id="path_04819b" stroke="none" /><path d="M 398 1087 L 394 1101 L 394 1112 L 432 1121 L 439 1130 L 449 1136 L 478 1140 L 492 1140 L 493 1136 L 480 1135 L 479 1138 L 478 1136 L 473 1136 L 473 1133 L 453 1131 L 445 1128 L 441 1121 L 441 1115 L 438 1112 L 444 1102 L 445 1108 L 448 1108 L 451 1111 L 448 1116 L 444 1116 L 445 1123 L 450 1127 L 459 1129 L 465 1127 L 466 1130 L 473 1128 L 473 1131 L 508 1132 L 511 1120 L 510 1102 L 491 1099 L 488 1096 L 491 1094 L 451 1089 L 450 1087 L 445 1088 L 439 1093 L 417 1089 L 404 1084 L 401 1084 Z" fill="rgb(93,98,98)" id="path_2ead18" stroke="none" /><path d="M 365 1067 L 361 1081 L 361 1094 L 374 1103 L 382 1106 L 382 1098 L 384 1090 L 388 1084 L 388 1079 Z" fill="rgb(93,98,98)" id="path_15e479" stroke="none" /><path d="M 616 884 L 613 902 L 613 932 L 617 948 L 614 928 L 614 908 L 617 889 Z" fill="rgb(93,98,98)" id="path_c50989" stroke="none" /><path d="M 448 820 L 448 825 L 451 832 L 463 845 L 481 854 L 507 860 L 531 861 L 555 858 L 576 850 L 597 836 L 595 835 L 574 849 L 556 855 L 540 858 L 508 858 L 487 854 L 465 844 L 455 835 Z" fill="rgb(93,98,98)" id="path_ed0b23" stroke="none" /><path d="M 629 523 L 618 529 L 609 539 L 605 550 L 606 566 L 611 576 L 620 585 L 633 590 L 650 589 L 662 582 L 668 575 L 673 562 L 672 546 L 664 532 L 656 526 L 643 522 Z" fill="rgb(93,98,98)" id="path_855585" stroke="none" /><path d="M 578 544 L 578 554 L 580 544 L 589 529 L 602 517 L 613 510 L 630 505 L 649 506 L 663 513 L 678 528 L 683 536 L 689 552 L 691 576 L 699 577 L 694 574 L 694 549 L 686 526 L 674 511 L 664 503 L 654 498 L 644 496 L 627 497 L 607 505 L 588 523 Z" fill="rgb(93,98,98)" id="path_d66a33" stroke="none" /><path d="M 430 488 L 421 491 L 409 502 L 404 513 L 403 528 L 408 541 L 416 550 L 425 555 L 440 556 L 451 551 L 459 544 L 465 533 L 467 518 L 465 509 L 456 495 L 442 488 Z" fill="rgb(93,98,98)" id="path_56951d" stroke="none" /><path d="M 821 458 L 821 513 L 818 542 L 823 505 L 823 472 Z" fill="rgb(93,98,98)" id="path_8efbba" stroke="none" /><path d="M 369 512 L 370 514 L 373 513 L 382 493 L 400 474 L 416 465 L 438 464 L 451 470 L 466 485 L 476 504 L 479 517 L 479 528 L 481 523 L 480 501 L 468 476 L 452 461 L 435 455 L 418 456 L 404 462 L 393 470 L 379 488 L 373 503 L 372 511 Z" fill="rgb(93,98,98)" id="path_29d252" stroke="none" /><path d="M 832 391 L 836 405 L 834 433 L 842 423 L 845 411 L 844 401 L 837 392 Z" fill="rgb(93,98,98)" id="path_3fa1c7" stroke="none" /><path d="M 930 339 L 925 337 L 908 338 L 904 341 L 898 342 L 895 346 L 885 351 L 891 357 L 895 365 L 898 366 L 903 355 L 910 348 Z" fill="rgb(93,98,98)" id="path_2644d6" stroke="none" /><path d="M 469 219 L 539 220 L 546 223 L 575 224 L 587 229 L 598 230 L 605 233 L 621 235 L 633 240 L 639 240 L 646 245 L 660 249 L 688 262 L 691 266 L 710 276 L 747 306 L 750 312 L 757 320 L 761 322 L 762 326 L 768 332 L 770 340 L 776 339 L 755 311 L 741 296 L 722 280 L 689 259 L 652 242 L 620 232 L 565 221 L 535 218 Z" fill="rgb(93,98,98)" id="path_28a5a0" stroke="none" /><path d="M 200 1842 L 200 1847 L 202 1849 L 207 1849 L 209 1852 L 216 1852 L 218 1856 L 231 1857 L 233 1860 L 247 1862 L 250 1868 L 280 1870 L 281 1873 L 287 1873 L 290 1876 L 320 1878 L 321 1881 L 335 1881 L 338 1884 L 368 1884 L 370 1886 L 408 1887 L 423 1886 L 425 1884 L 504 1884 L 494 1881 L 464 1881 L 463 1884 L 442 1884 L 441 1881 L 418 1880 L 416 1874 L 401 1874 L 399 1876 L 386 1878 L 383 1873 L 362 1873 L 359 1876 L 354 1876 L 351 1873 L 290 1872 L 289 1868 L 282 1868 L 279 1864 L 275 1864 L 272 1867 L 265 1867 L 263 1864 L 258 1864 L 257 1858 L 225 1855 L 225 1833 L 231 1831 L 225 1831 L 223 1826 L 218 1824 L 218 1818 L 216 1824 L 211 1824 L 213 1840 L 210 1842 Z" fill="rgb(235,243,251)" id="path_af324f" stroke="none" /><path d="M 185 1769 L 184 1775 L 176 1778 L 176 1793 L 169 1794 L 169 1797 L 184 1797 L 185 1799 L 200 1798 L 204 1802 L 201 1821 L 209 1822 L 209 1810 L 205 1807 L 205 1802 L 209 1801 L 209 1793 L 201 1791 L 201 1786 L 208 1785 L 207 1781 L 193 1781 L 193 1769 Z" fill="rgb(235,243,251)" id="path_491a49" stroke="none" /><path d="M 332 1738 L 328 1736 L 321 1736 L 319 1738 L 297 1737 L 296 1739 L 281 1741 L 279 1745 L 242 1747 L 240 1749 L 234 1749 L 231 1752 L 225 1752 L 224 1755 L 210 1757 L 207 1760 L 200 1760 L 199 1763 L 194 1763 L 193 1766 L 200 1766 L 202 1761 L 216 1761 L 218 1759 L 239 1755 L 242 1750 L 255 1750 L 265 1746 L 322 1743 L 332 1744 Z" fill="rgb(235,243,251)" id="path_65c6ef" stroke="none" /><path d="M 940 1801 L 937 1799 L 937 1794 L 934 1792 L 934 1785 L 929 1783 L 929 1778 L 914 1776 L 912 1768 L 906 1768 L 903 1765 L 889 1763 L 889 1759 L 887 1757 L 873 1755 L 871 1752 L 866 1752 L 863 1749 L 857 1749 L 855 1747 L 849 1747 L 847 1744 L 834 1744 L 831 1741 L 817 1739 L 815 1736 L 802 1736 L 799 1733 L 793 1733 L 791 1731 L 777 1731 L 775 1729 L 745 1727 L 752 1728 L 754 1730 L 768 1730 L 770 1732 L 784 1734 L 786 1737 L 799 1737 L 801 1739 L 815 1741 L 818 1744 L 824 1744 L 834 1748 L 847 1748 L 850 1751 L 850 1755 L 863 1755 L 865 1757 L 871 1757 L 874 1762 L 895 1766 L 895 1769 L 890 1770 L 896 1770 L 898 1775 L 903 1775 L 906 1778 L 919 1777 L 920 1783 L 928 1786 L 929 1816 L 927 1824 L 914 1825 L 913 1832 L 905 1833 L 904 1839 L 897 1840 L 896 1847 L 889 1848 L 888 1851 L 873 1849 L 871 1856 L 857 1856 L 847 1860 L 834 1860 L 831 1867 L 818 1867 L 816 1869 L 802 1871 L 799 1874 L 785 1874 L 783 1876 L 760 1873 L 737 1874 L 737 1881 L 735 1883 L 722 1883 L 720 1881 L 706 1879 L 712 1881 L 711 1888 L 657 1888 L 642 1890 L 639 1885 L 633 1885 L 631 1888 L 616 1888 L 615 1890 L 610 1890 L 608 1888 L 578 1888 L 576 1885 L 569 1885 L 568 1888 L 575 1887 L 578 1890 L 608 1890 L 610 1892 L 617 1893 L 671 1892 L 674 1889 L 720 1889 L 721 1886 L 759 1884 L 762 1881 L 769 1881 L 770 1878 L 776 1878 L 777 1881 L 783 1881 L 785 1878 L 799 1878 L 801 1876 L 807 1876 L 810 1873 L 816 1873 L 817 1870 L 847 1868 L 849 1866 L 849 1862 L 855 1862 L 857 1860 L 871 1860 L 874 1857 L 880 1857 L 881 1854 L 887 1854 L 889 1852 L 895 1852 L 898 1849 L 903 1849 L 906 1841 L 921 1839 L 921 1834 L 927 1833 L 929 1831 L 929 1826 L 937 1823 L 937 1810 L 940 1808 Z" fill="rgb(235,243,251)" id="path_fbc34a" stroke="none" /><path d="M 638 1719 L 636 1721 L 610 1723 L 608 1725 L 586 1725 L 578 1728 L 608 1727 L 613 1730 L 617 1728 L 634 1728 L 636 1730 Z" fill="rgb(235,243,251)" id="path_265e8e" stroke="none" /><path d="M 590 1550 L 586 1546 L 588 1542 L 584 1539 L 585 1533 L 581 1533 L 578 1537 L 529 1537 L 529 1544 L 576 1544 L 577 1542 L 580 1544 L 581 1552 L 588 1552 Z" fill="rgb(235,243,251)" id="path_8c1707" stroke="none" /><path d="M 721 1505 L 721 1518 L 723 1520 L 735 1520 L 738 1512 L 744 1512 L 744 1505 Z" fill="rgb(235,243,251)" id="path_222086" stroke="none" /><path d="M 560 1474 L 555 1472 L 543 1473 L 541 1469 L 535 1469 L 531 1472 L 522 1472 L 529 1475 L 529 1486 L 526 1489 L 515 1489 L 512 1486 L 512 1482 L 505 1482 L 506 1488 L 513 1489 L 513 1495 L 511 1497 L 505 1497 L 505 1536 L 512 1536 L 512 1507 L 515 1504 L 568 1505 L 572 1503 L 569 1501 L 567 1494 L 563 1496 L 560 1495 L 560 1489 L 564 1488 Z" fill="rgb(235,243,251)" id="path_892a8e" stroke="none" /><path d="M 226 1393 L 225 1399 L 231 1400 L 234 1408 L 239 1408 L 240 1393 Z" fill="rgb(235,243,251)" id="path_8d5488" stroke="none" /><path d="M 114 1185 L 113 1199 L 121 1202 L 121 1223 L 128 1224 L 128 1186 Z" fill="rgb(235,243,251)" id="path_3181b4" stroke="none" /><path d="M 1033 1009 L 1033 1023 L 1040 1023 L 1040 1011 L 1039 1009 Z" fill="rgb(235,243,251)" id="path_d1a510" stroke="none" /><path d="M 968 986 L 962 985 L 960 993 L 929 994 L 929 1008 L 944 1007 L 944 1002 L 946 1000 L 951 1000 L 953 1002 L 953 1008 L 968 1008 Z" fill="rgb(235,243,251)" id="path_4d9382" stroke="none" /><path d="M 864 627 L 856 626 L 857 638 L 855 643 L 857 645 L 851 654 L 854 656 L 850 657 L 849 665 L 844 669 L 842 679 L 838 685 L 836 682 L 835 686 L 828 692 L 831 694 L 828 697 L 825 697 L 819 704 L 815 705 L 813 709 L 807 711 L 806 715 L 803 714 L 802 719 L 799 717 L 792 720 L 792 724 L 790 722 L 786 723 L 784 727 L 781 725 L 778 728 L 775 727 L 768 730 L 762 730 L 759 733 L 758 731 L 754 731 L 751 734 L 729 729 L 728 727 L 722 725 L 714 729 L 712 733 L 709 733 L 694 743 L 687 745 L 685 749 L 673 751 L 671 754 L 667 754 L 665 757 L 658 758 L 657 760 L 652 759 L 641 762 L 640 767 L 635 765 L 632 767 L 624 767 L 619 769 L 610 768 L 606 770 L 590 770 L 587 774 L 587 783 L 589 783 L 592 788 L 607 794 L 609 799 L 616 800 L 616 803 L 631 811 L 642 820 L 651 816 L 653 818 L 653 824 L 663 826 L 665 824 L 666 816 L 670 816 L 673 819 L 673 830 L 669 832 L 671 838 L 678 838 L 678 842 L 680 844 L 682 841 L 683 842 L 681 852 L 687 861 L 691 880 L 693 878 L 696 879 L 693 882 L 693 885 L 696 887 L 696 897 L 698 902 L 704 907 L 706 928 L 709 930 L 708 933 L 711 937 L 710 943 L 713 946 L 713 949 L 717 952 L 717 964 L 722 970 L 722 977 L 726 979 L 728 999 L 730 1004 L 734 1001 L 737 1002 L 737 1008 L 733 1009 L 735 1014 L 734 1019 L 738 1029 L 737 1038 L 738 1040 L 741 1040 L 741 1048 L 744 1049 L 746 1071 L 749 1073 L 749 1078 L 751 1081 L 750 1085 L 754 1116 L 757 1119 L 757 1127 L 759 1129 L 758 1136 L 761 1138 L 759 1141 L 760 1152 L 763 1155 L 763 1173 L 777 1192 L 782 1195 L 787 1208 L 793 1209 L 791 1216 L 795 1223 L 799 1224 L 803 1231 L 806 1230 L 809 1237 L 817 1239 L 814 1240 L 814 1242 L 819 1248 L 825 1249 L 823 1252 L 824 1256 L 819 1260 L 813 1261 L 817 1266 L 818 1272 L 821 1271 L 823 1273 L 826 1282 L 826 1291 L 819 1294 L 819 1297 L 802 1298 L 800 1296 L 798 1297 L 797 1294 L 792 1294 L 794 1296 L 793 1298 L 785 1297 L 784 1293 L 787 1290 L 784 1288 L 779 1288 L 777 1290 L 775 1288 L 777 1286 L 777 1282 L 773 1278 L 773 1275 L 771 1276 L 768 1274 L 768 1279 L 766 1281 L 754 1281 L 752 1279 L 753 1271 L 751 1270 L 747 1273 L 745 1281 L 742 1281 L 740 1284 L 744 1285 L 745 1287 L 742 1290 L 737 1286 L 738 1296 L 733 1298 L 731 1296 L 732 1289 L 727 1289 L 720 1286 L 723 1272 L 723 1265 L 720 1260 L 722 1258 L 724 1259 L 724 1254 L 721 1253 L 719 1248 L 719 1234 L 713 1230 L 713 1225 L 710 1223 L 710 1218 L 712 1216 L 716 1217 L 718 1209 L 715 1215 L 714 1208 L 706 1209 L 704 1207 L 704 1203 L 707 1200 L 719 1199 L 719 1186 L 714 1186 L 709 1182 L 710 1169 L 706 1169 L 704 1167 L 703 1161 L 697 1162 L 696 1169 L 689 1169 L 688 1162 L 681 1161 L 679 1153 L 665 1153 L 663 1145 L 652 1146 L 652 1151 L 656 1155 L 655 1165 L 658 1176 L 656 1177 L 655 1173 L 653 1172 L 654 1180 L 656 1184 L 663 1184 L 665 1186 L 665 1191 L 663 1193 L 658 1193 L 660 1208 L 663 1209 L 662 1216 L 667 1218 L 667 1231 L 669 1233 L 668 1238 L 670 1236 L 671 1240 L 668 1240 L 672 1260 L 676 1269 L 676 1275 L 679 1277 L 678 1282 L 680 1286 L 680 1293 L 689 1328 L 692 1333 L 692 1337 L 694 1336 L 696 1338 L 693 1343 L 696 1343 L 698 1346 L 696 1355 L 710 1402 L 709 1409 L 695 1424 L 682 1432 L 680 1437 L 677 1435 L 665 1441 L 663 1445 L 660 1443 L 659 1447 L 665 1448 L 658 1449 L 657 1451 L 658 1455 L 663 1457 L 662 1462 L 664 1460 L 665 1461 L 663 1470 L 665 1473 L 665 1483 L 668 1483 L 672 1479 L 672 1474 L 665 1471 L 665 1465 L 668 1463 L 668 1457 L 671 1455 L 674 1458 L 674 1464 L 680 1463 L 681 1456 L 689 1457 L 689 1495 L 695 1496 L 698 1504 L 704 1503 L 704 1491 L 707 1488 L 750 1488 L 753 1491 L 753 1503 L 755 1504 L 760 1503 L 760 1498 L 762 1496 L 767 1496 L 770 1504 L 798 1504 L 800 1503 L 802 1489 L 816 1488 L 816 1475 L 819 1472 L 847 1472 L 848 1459 L 851 1456 L 864 1456 L 864 1443 L 866 1441 L 896 1439 L 896 1379 L 899 1376 L 911 1376 L 912 1363 L 915 1360 L 920 1360 L 920 1354 L 922 1352 L 928 1351 L 928 1321 L 936 1319 L 936 1306 L 944 1303 L 943 1297 L 930 1297 L 928 1294 L 928 1267 L 931 1264 L 942 1264 L 945 1267 L 945 1288 L 952 1288 L 952 1265 L 946 1265 L 944 1262 L 944 1209 L 938 1209 L 935 1201 L 922 1201 L 920 1199 L 920 1194 L 928 1191 L 928 1169 L 936 1167 L 936 1146 L 944 1143 L 938 1142 L 936 1138 L 922 1137 L 920 1145 L 914 1145 L 912 1143 L 912 1122 L 899 1121 L 896 1118 L 896 1089 L 881 1089 L 881 1118 L 878 1121 L 865 1121 L 865 1150 L 862 1153 L 818 1152 L 816 1150 L 816 1137 L 786 1136 L 784 1105 L 771 1105 L 769 1103 L 768 1075 L 771 1072 L 800 1072 L 800 1059 L 803 1056 L 815 1057 L 817 1059 L 817 1072 L 848 1072 L 848 1059 L 851 1056 L 864 1056 L 865 1042 L 874 1041 L 875 1034 L 879 1032 L 881 1026 L 895 1026 L 896 1024 L 911 1023 L 913 1018 L 912 995 L 910 993 L 897 993 L 896 979 L 899 976 L 910 976 L 912 974 L 912 961 L 919 960 L 920 954 L 928 951 L 928 938 L 930 936 L 943 936 L 945 928 L 959 927 L 965 929 L 965 935 L 968 936 L 970 940 L 984 941 L 986 936 L 992 936 L 993 944 L 1000 944 L 1000 929 L 995 929 L 992 926 L 992 914 L 987 911 L 989 898 L 992 896 L 992 890 L 996 887 L 996 874 L 992 869 L 992 865 L 984 856 L 983 833 L 976 827 L 976 825 L 973 824 L 972 817 L 968 815 L 966 802 L 962 799 L 960 786 L 958 784 L 957 770 L 954 767 L 954 761 L 951 759 L 951 755 L 948 751 L 948 734 L 944 732 L 930 733 L 921 720 L 918 721 L 913 718 L 913 712 L 917 718 L 920 717 L 914 712 L 914 705 L 912 703 L 910 693 L 905 688 L 896 689 L 894 687 L 899 685 L 891 679 L 891 673 L 888 671 L 888 663 L 871 647 L 869 632 Z" fill="rgb(235,243,251)" id="path_40ed28" stroke="none" /><path d="M 202 601 L 200 609 L 186 609 L 185 615 L 183 617 L 177 617 L 177 622 L 174 625 L 161 625 L 161 638 L 158 641 L 146 640 L 144 638 L 144 625 L 137 625 L 137 639 L 135 641 L 127 642 L 127 648 L 125 650 L 125 656 L 128 658 L 128 671 L 120 672 L 120 679 L 129 686 L 130 691 L 137 697 L 137 704 L 141 706 L 140 720 L 143 719 L 145 724 L 153 730 L 156 736 L 161 737 L 159 740 L 164 749 L 161 782 L 158 785 L 153 785 L 153 791 L 151 793 L 145 794 L 145 817 L 143 818 L 143 823 L 145 824 L 145 846 L 142 849 L 137 849 L 137 864 L 138 866 L 143 866 L 144 864 L 159 864 L 161 866 L 176 864 L 177 873 L 175 874 L 175 881 L 192 879 L 192 851 L 195 848 L 208 848 L 208 835 L 211 832 L 223 833 L 225 835 L 225 896 L 239 897 L 241 899 L 241 928 L 254 928 L 256 930 L 257 944 L 279 944 L 288 946 L 289 976 L 302 976 L 305 979 L 305 1008 L 318 1008 L 321 1011 L 321 1056 L 334 1056 L 337 1059 L 337 1102 L 335 1104 L 306 1105 L 306 1112 L 303 1114 L 303 1120 L 305 1122 L 305 1135 L 312 1137 L 340 1136 L 342 1138 L 342 1152 L 338 1154 L 338 1166 L 336 1168 L 338 1181 L 336 1182 L 336 1199 L 334 1201 L 320 1200 L 320 1217 L 302 1217 L 295 1209 L 292 1208 L 292 1202 L 287 1199 L 281 1199 L 279 1196 L 280 1169 L 273 1164 L 274 1145 L 276 1143 L 276 1140 L 273 1137 L 284 1136 L 288 1130 L 289 1121 L 282 1120 L 281 1114 L 277 1113 L 276 1109 L 270 1109 L 269 1112 L 259 1121 L 249 1121 L 248 1113 L 246 1113 L 243 1109 L 232 1108 L 228 1112 L 224 1105 L 202 1105 L 200 1101 L 162 1103 L 161 1107 L 153 1114 L 152 1117 L 138 1119 L 137 1121 L 131 1121 L 129 1123 L 130 1136 L 160 1136 L 162 1144 L 170 1144 L 172 1146 L 172 1151 L 170 1153 L 162 1153 L 161 1160 L 154 1161 L 153 1168 L 146 1169 L 143 1177 L 129 1178 L 130 1184 L 142 1184 L 145 1187 L 145 1230 L 142 1233 L 130 1233 L 129 1239 L 137 1242 L 137 1255 L 144 1256 L 145 1233 L 158 1232 L 161 1235 L 161 1262 L 158 1265 L 146 1265 L 145 1278 L 147 1280 L 160 1280 L 160 1267 L 162 1264 L 174 1264 L 177 1267 L 177 1294 L 174 1297 L 162 1297 L 161 1299 L 162 1304 L 167 1304 L 169 1306 L 169 1319 L 176 1320 L 176 1299 L 178 1296 L 190 1296 L 193 1299 L 193 1326 L 190 1329 L 185 1329 L 185 1343 L 192 1343 L 192 1331 L 194 1328 L 206 1328 L 209 1331 L 209 1342 L 206 1345 L 194 1345 L 193 1351 L 201 1354 L 201 1367 L 208 1368 L 209 1376 L 215 1376 L 217 1378 L 218 1392 L 224 1391 L 224 1361 L 211 1361 L 208 1358 L 209 1345 L 238 1344 L 241 1347 L 241 1376 L 265 1377 L 265 1383 L 263 1385 L 257 1385 L 257 1406 L 254 1409 L 241 1410 L 241 1423 L 256 1424 L 257 1431 L 263 1432 L 266 1440 L 272 1440 L 273 1447 L 279 1448 L 281 1450 L 281 1455 L 288 1456 L 289 1463 L 295 1464 L 297 1466 L 297 1471 L 302 1472 L 304 1471 L 304 1457 L 291 1457 L 288 1454 L 288 1443 L 290 1440 L 303 1440 L 305 1438 L 309 1441 L 309 1438 L 304 1434 L 307 1431 L 302 1431 L 302 1427 L 299 1428 L 295 1420 L 299 1418 L 296 1416 L 300 1412 L 303 1412 L 303 1409 L 297 1408 L 293 1410 L 293 1424 L 288 1424 L 288 1385 L 295 1384 L 297 1386 L 297 1399 L 303 1400 L 303 1387 L 307 1365 L 305 1362 L 306 1357 L 309 1355 L 316 1314 L 314 1310 L 317 1310 L 316 1305 L 318 1304 L 322 1275 L 325 1266 L 323 1264 L 323 1257 L 320 1249 L 322 1247 L 328 1248 L 333 1223 L 332 1213 L 335 1212 L 339 1193 L 337 1182 L 341 1181 L 347 1152 L 345 1145 L 349 1142 L 350 1138 L 345 1130 L 348 1128 L 351 1131 L 354 1117 L 352 1110 L 353 1109 L 355 1111 L 354 1102 L 357 1102 L 356 1097 L 358 1096 L 359 1077 L 362 1068 L 361 1065 L 363 1064 L 362 1049 L 365 1041 L 364 1037 L 367 1036 L 372 1023 L 373 1013 L 376 1008 L 376 993 L 379 993 L 381 986 L 381 974 L 383 971 L 385 954 L 384 945 L 387 942 L 386 933 L 390 927 L 393 913 L 392 903 L 393 902 L 395 904 L 393 897 L 397 896 L 397 892 L 393 894 L 392 889 L 400 887 L 399 873 L 393 873 L 392 866 L 394 864 L 399 864 L 401 866 L 403 863 L 406 863 L 406 845 L 402 840 L 406 838 L 406 836 L 401 836 L 399 834 L 386 834 L 383 831 L 369 831 L 369 839 L 367 841 L 353 841 L 352 834 L 337 832 L 338 829 L 344 829 L 345 827 L 350 827 L 350 825 L 346 826 L 339 822 L 328 826 L 323 825 L 320 822 L 319 817 L 309 816 L 307 814 L 302 815 L 288 808 L 284 808 L 273 802 L 268 797 L 264 796 L 265 794 L 261 790 L 262 788 L 260 784 L 257 784 L 258 780 L 255 772 L 252 769 L 252 766 L 249 765 L 251 764 L 248 752 L 245 745 L 242 744 L 244 738 L 241 735 L 242 731 L 240 730 L 241 723 L 239 696 L 237 695 L 239 694 L 238 684 L 236 686 L 234 683 L 235 678 L 238 677 L 238 666 L 235 663 L 238 647 L 236 648 L 236 656 L 234 656 L 234 650 L 232 649 L 233 642 L 224 634 L 224 631 L 221 629 L 222 626 L 218 625 L 218 612 L 212 607 L 210 601 Z" fill="rgb(235,243,251)" id="path_79f8d8" stroke="none" /><path d="M 316 553 L 320 559 L 313 562 L 314 566 L 308 573 L 311 576 L 305 576 L 303 585 L 305 584 L 306 588 L 305 589 L 302 587 L 304 595 L 301 599 L 299 599 L 301 605 L 297 608 L 287 633 L 282 634 L 278 639 L 281 640 L 281 647 L 284 649 L 282 651 L 284 658 L 289 664 L 289 670 L 293 673 L 292 676 L 297 687 L 300 690 L 302 688 L 304 689 L 305 693 L 302 693 L 301 696 L 304 696 L 303 699 L 306 700 L 305 705 L 314 718 L 313 724 L 322 732 L 320 735 L 322 739 L 322 751 L 336 751 L 338 753 L 344 753 L 344 745 L 351 744 L 353 746 L 352 754 L 355 757 L 368 755 L 370 759 L 400 760 L 403 767 L 430 768 L 434 771 L 445 770 L 443 768 L 443 762 L 440 760 L 440 754 L 433 754 L 431 752 L 433 748 L 440 748 L 440 745 L 438 745 L 431 738 L 421 738 L 419 736 L 420 734 L 409 731 L 406 728 L 405 721 L 401 721 L 399 717 L 396 717 L 389 722 L 386 722 L 383 719 L 384 713 L 388 709 L 388 706 L 384 704 L 383 700 L 376 698 L 375 690 L 367 680 L 367 674 L 360 672 L 359 667 L 353 659 L 356 654 L 352 651 L 353 647 L 351 642 L 345 642 L 345 648 L 338 649 L 336 647 L 336 641 L 330 641 L 328 639 L 329 632 L 338 633 L 341 631 L 343 622 L 339 625 L 336 624 L 336 618 L 340 613 L 338 615 L 338 610 L 334 610 L 329 602 L 329 595 L 326 591 L 328 585 L 323 579 L 323 569 L 325 566 L 320 558 L 321 552 Z" fill="rgb(235,243,251)" id="path_393a7c" stroke="none" /><path d="M 639 508 L 639 512 L 633 514 L 628 513 L 632 510 L 621 510 L 616 512 L 616 516 L 613 514 L 609 516 L 608 519 L 610 519 L 611 516 L 614 518 L 611 522 L 606 520 L 604 522 L 601 521 L 601 523 L 596 526 L 597 529 L 593 530 L 589 534 L 585 541 L 586 549 L 584 553 L 580 555 L 578 565 L 580 575 L 588 586 L 592 583 L 594 593 L 599 596 L 599 599 L 610 607 L 616 609 L 624 607 L 631 608 L 633 612 L 640 612 L 642 608 L 663 608 L 678 599 L 687 587 L 688 566 L 685 560 L 687 556 L 682 542 L 679 542 L 679 537 L 674 535 L 676 531 L 670 536 L 674 536 L 672 540 L 674 542 L 674 546 L 677 548 L 677 552 L 680 550 L 677 544 L 679 543 L 684 550 L 685 558 L 683 559 L 681 554 L 679 554 L 679 558 L 682 558 L 683 560 L 681 562 L 676 560 L 673 571 L 674 576 L 670 576 L 672 581 L 670 583 L 668 581 L 665 582 L 665 586 L 660 586 L 653 593 L 631 593 L 628 591 L 623 592 L 621 590 L 622 593 L 619 594 L 616 591 L 619 587 L 613 586 L 610 583 L 611 580 L 607 580 L 608 577 L 605 571 L 600 572 L 599 568 L 603 567 L 602 559 L 600 558 L 600 555 L 602 554 L 600 550 L 600 544 L 602 542 L 601 536 L 602 535 L 606 540 L 605 536 L 608 536 L 607 531 L 613 530 L 616 527 L 616 518 L 618 519 L 619 523 L 632 519 L 652 519 L 654 522 L 661 518 L 658 513 L 654 512 L 651 514 L 649 512 L 652 510 Z" fill="rgb(235,243,251)" id="path_1592f6" stroke="none" /><path d="M 461 488 L 461 491 L 468 495 L 467 497 L 460 496 L 466 499 L 465 503 L 467 507 L 468 504 L 470 504 L 470 509 L 468 511 L 471 513 L 472 525 L 474 526 L 474 509 L 471 509 L 472 502 L 466 490 L 463 491 Z" fill="rgb(235,243,251)" id="path_f34bc8" stroke="none" /><path d="M 425 466 L 417 468 L 422 469 L 424 471 L 423 472 L 414 472 L 409 475 L 405 474 L 407 479 L 403 480 L 402 477 L 398 479 L 396 482 L 398 481 L 401 483 L 395 489 L 392 486 L 381 500 L 382 504 L 375 514 L 377 516 L 377 520 L 374 522 L 374 527 L 376 528 L 375 537 L 377 538 L 376 540 L 378 545 L 383 548 L 384 553 L 389 555 L 394 561 L 398 561 L 399 563 L 414 562 L 419 568 L 440 569 L 460 560 L 474 540 L 471 540 L 471 531 L 469 535 L 467 533 L 468 537 L 466 538 L 465 543 L 459 548 L 460 549 L 463 546 L 464 549 L 462 551 L 456 551 L 451 556 L 447 556 L 446 560 L 417 560 L 415 555 L 416 553 L 412 551 L 412 553 L 409 554 L 407 552 L 408 546 L 406 542 L 403 545 L 401 544 L 403 542 L 403 538 L 400 536 L 402 534 L 399 529 L 399 520 L 402 513 L 402 505 L 405 504 L 409 498 L 407 494 L 409 492 L 412 494 L 410 492 L 411 489 L 416 490 L 417 487 L 420 489 L 425 487 L 425 484 L 448 484 L 449 488 L 454 487 L 454 490 L 458 493 L 458 487 L 456 486 L 459 481 L 457 482 L 456 479 L 451 481 L 450 479 L 453 476 L 450 473 L 445 474 L 441 472 L 439 467 Z" fill="rgb(235,243,251)" id="path_5b7a31" stroke="none" /><path d="M 273 465 L 273 478 L 270 481 L 243 481 L 241 494 L 238 497 L 248 496 L 250 498 L 247 501 L 250 500 L 253 503 L 254 530 L 256 529 L 255 513 L 263 505 L 264 507 L 266 505 L 274 505 L 275 509 L 277 507 L 279 508 L 281 514 L 279 515 L 280 528 L 278 533 L 280 536 L 278 537 L 279 561 L 282 563 L 282 567 L 284 567 L 285 563 L 289 559 L 289 554 L 293 556 L 296 553 L 304 552 L 306 546 L 312 549 L 312 546 L 314 545 L 317 550 L 321 550 L 326 537 L 328 522 L 335 515 L 330 511 L 330 498 L 333 494 L 331 489 L 326 490 L 330 492 L 329 494 L 326 493 L 323 495 L 321 493 L 317 497 L 310 498 L 310 500 L 306 501 L 305 503 L 302 502 L 301 504 L 299 503 L 285 508 L 282 506 L 281 500 L 284 499 L 285 504 L 287 501 L 285 498 L 290 498 L 293 490 L 301 486 L 300 482 L 298 481 L 301 479 L 303 481 L 303 475 L 306 473 L 290 472 L 287 476 L 282 476 L 280 474 L 280 465 Z" fill="rgb(235,243,251)" id="path_620f47" stroke="none" /><path d="M 250 1786 L 250 1791 L 256 1791 L 258 1793 L 258 1807 L 264 1807 L 266 1809 L 266 1823 L 295 1823 L 295 1826 L 290 1826 L 290 1831 L 312 1831 L 314 1833 L 314 1839 L 343 1839 L 346 1843 L 384 1843 L 386 1845 L 416 1845 L 418 1847 L 432 1848 L 448 1847 L 450 1849 L 450 1855 L 639 1855 L 640 1850 L 639 1848 L 637 1850 L 636 1846 L 634 1845 L 635 1843 L 633 1841 L 632 1826 L 625 1826 L 625 1831 L 623 1833 L 602 1833 L 600 1840 L 578 1840 L 576 1836 L 561 1838 L 560 1840 L 538 1840 L 536 1836 L 489 1836 L 487 1833 L 450 1833 L 448 1831 L 448 1825 L 438 1825 L 436 1822 L 431 1822 L 431 1825 L 426 1825 L 411 1831 L 384 1834 L 361 1834 L 356 1832 L 349 1832 L 348 1834 L 345 1834 L 344 1831 L 336 1830 L 324 1825 L 321 1828 L 319 1826 L 320 1824 L 317 1822 L 317 1818 L 315 1818 L 317 1820 L 312 1822 L 304 1814 L 304 1797 L 305 1796 L 308 1800 L 307 1796 L 309 1794 L 307 1794 L 305 1790 L 307 1788 L 309 1790 L 312 1783 L 311 1780 L 319 1769 L 318 1762 L 298 1762 L 298 1767 L 311 1767 L 313 1769 L 311 1772 L 282 1770 L 282 1775 L 279 1778 L 258 1778 L 258 1784 L 256 1786 Z" fill="rgb(229,213,205)" id="path_ce45de" stroke="none" /><path d="M 738 1753 L 743 1756 L 741 1758 L 742 1763 L 749 1773 L 750 1780 L 752 1775 L 760 1776 L 761 1784 L 776 1784 L 777 1792 L 785 1793 L 784 1801 L 769 1801 L 768 1793 L 757 1793 L 757 1799 L 760 1804 L 760 1808 L 758 1809 L 759 1813 L 756 1816 L 756 1818 L 760 1819 L 759 1832 L 768 1832 L 762 1833 L 762 1835 L 759 1835 L 758 1839 L 761 1840 L 759 1845 L 762 1847 L 767 1847 L 767 1841 L 769 1839 L 807 1839 L 807 1833 L 809 1831 L 823 1831 L 823 1825 L 825 1823 L 831 1823 L 831 1817 L 833 1815 L 847 1815 L 847 1809 L 849 1807 L 855 1807 L 858 1811 L 863 1811 L 866 1807 L 871 1807 L 871 1794 L 865 1794 L 863 1792 L 863 1786 L 849 1786 L 847 1784 L 847 1778 L 826 1777 L 823 1772 L 808 1772 L 807 1769 L 809 1767 L 815 1767 L 815 1762 L 794 1762 L 791 1759 L 791 1754 L 770 1754 L 767 1751 L 767 1746 L 754 1745 L 751 1753 Z" fill="rgb(229,213,205)" id="path_cfdc91" stroke="none" /><path d="M 634 1737 L 632 1740 L 631 1738 L 618 1738 L 617 1740 L 610 1740 L 608 1744 L 585 1744 L 579 1747 L 553 1748 L 551 1750 L 544 1750 L 540 1746 L 527 1747 L 523 1749 L 514 1747 L 498 1747 L 495 1750 L 482 1751 L 480 1753 L 478 1752 L 476 1753 L 476 1757 L 478 1760 L 477 1754 L 479 1753 L 482 1760 L 495 1759 L 495 1754 L 499 1752 L 511 1752 L 513 1755 L 520 1755 L 518 1752 L 519 1751 L 526 1753 L 536 1752 L 537 1748 L 540 1751 L 544 1751 L 545 1755 L 560 1755 L 560 1751 L 562 1749 L 582 1748 L 583 1753 L 616 1752 L 617 1759 L 632 1760 L 634 1751 L 632 1743 Z" fill="rgb(229,213,205)" id="path_a7639e" stroke="none" /><path d="M 369 676 L 379 692 L 398 712 L 408 719 L 406 715 L 400 712 L 391 703 L 390 699 L 384 696 L 383 692 L 377 688 L 376 683 Z" fill="rgb(229,213,205)" id="path_0b09fa" stroke="none" /><path d="M 498 497 L 499 516 L 502 522 L 528 521 L 539 523 L 544 527 L 551 529 L 546 527 L 542 521 L 529 519 L 505 520 L 501 515 L 500 498 Z" fill="rgb(229,213,205)" id="path_5d1446" stroke="none" /><path d="M 610 489 L 608 492 L 596 497 L 591 504 L 587 504 L 573 522 L 570 535 L 567 537 L 567 544 L 565 546 L 564 568 L 569 591 L 572 594 L 573 600 L 577 603 L 577 607 L 594 624 L 606 629 L 613 635 L 621 637 L 616 631 L 616 623 L 618 621 L 623 621 L 625 626 L 657 627 L 659 629 L 657 634 L 660 636 L 670 634 L 685 624 L 688 624 L 704 609 L 705 605 L 709 602 L 710 594 L 714 591 L 715 578 L 719 576 L 720 568 L 718 560 L 718 546 L 714 543 L 713 530 L 710 527 L 709 522 L 705 520 L 705 514 L 688 497 L 684 497 L 680 493 L 674 492 L 667 487 L 658 487 L 655 484 L 633 483 L 626 484 L 623 487 L 617 487 L 616 489 Z" fill="rgb(229,213,205)" id="path_323d86" stroke="none" /><path d="M 609 477 L 611 478 L 633 473 L 640 473 L 641 475 L 650 473 L 671 478 L 655 472 L 625 472 L 621 475 Z" fill="rgb(229,213,205)" id="path_0f48a5" stroke="none" /><path d="M 402 450 L 399 455 L 394 455 L 392 458 L 387 460 L 378 471 L 365 482 L 361 499 L 358 500 L 365 508 L 370 509 L 371 500 L 375 493 L 373 491 L 377 489 L 382 478 L 399 462 L 413 455 L 433 453 L 434 451 L 435 453 L 440 454 L 442 452 L 444 455 L 446 454 L 460 465 L 463 465 L 465 470 L 468 470 L 471 473 L 471 477 L 479 490 L 483 503 L 482 530 L 473 546 L 473 549 L 459 565 L 443 572 L 417 573 L 414 571 L 404 570 L 392 562 L 386 561 L 373 542 L 370 528 L 371 517 L 367 516 L 359 508 L 357 508 L 357 512 L 355 514 L 355 541 L 359 546 L 361 560 L 364 563 L 364 567 L 368 570 L 369 575 L 381 588 L 396 597 L 417 601 L 432 600 L 433 598 L 456 591 L 479 566 L 488 543 L 490 529 L 488 498 L 477 476 L 472 472 L 468 465 L 464 463 L 463 460 L 455 455 L 436 449 Z" fill="rgb(229,213,205)" id="path_0236ad" stroke="none" /><path d="M 385 445 L 389 446 L 402 441 L 415 440 L 418 438 L 431 438 L 450 443 L 455 447 L 463 449 L 447 439 L 432 437 L 401 439 L 399 442 Z" fill="rgb(229,213,205)" id="path_76976d" stroke="none" /><path d="M 372 1460 L 372 1465 L 374 1468 L 392 1474 L 399 1474 L 409 1477 L 423 1477 L 433 1480 L 462 1480 L 462 1469 L 401 1465 L 398 1463 L 385 1462 L 379 1458 Z" fill="rgb(236,160,138)" id="path_5d62f8" stroke="none" /><path d="M 654 1449 L 652 1447 L 645 1447 L 634 1452 L 626 1452 L 623 1456 L 603 1458 L 593 1462 L 578 1463 L 575 1465 L 566 1465 L 562 1467 L 567 1477 L 599 1474 L 601 1472 L 627 1467 L 631 1464 L 655 1456 Z" fill="rgb(236,160,138)" id="path_07a9f8" stroke="none" /><path d="M 631 917 L 624 940 L 619 949 L 621 955 L 623 956 L 622 960 L 631 982 L 635 987 L 639 988 L 645 970 L 649 967 L 649 959 L 647 961 L 646 960 L 648 957 L 646 950 Z" fill="rgb(236,160,138)" id="path_2f7319" stroke="none" /><path d="M 488 775 L 494 778 L 521 782 L 552 782 L 575 779 L 581 776 L 584 778 L 582 774 L 583 770 L 553 771 L 544 769 L 529 769 L 506 766 L 504 764 L 495 764 L 494 761 L 490 761 Z" fill="rgb(236,160,138)" id="path_ff7bfa" stroke="none" /><path d="M 538 699 L 533 696 L 518 696 L 505 698 L 500 700 L 498 703 L 502 703 L 504 700 L 505 703 L 520 705 L 530 703 L 531 701 L 536 701 Z" fill="rgb(236,160,138)" id="path_dd5fc5" stroke="none" /><path d="M 467 685 L 470 703 L 473 706 L 474 713 L 479 718 L 483 717 L 488 720 L 504 724 L 523 724 L 528 722 L 533 724 L 543 719 L 552 711 L 560 699 L 562 691 L 567 687 L 569 678 L 560 690 L 549 700 L 535 707 L 522 710 L 512 710 L 489 706 L 476 696 L 471 688 L 468 678 Z" fill="rgb(236,160,138)" id="path_b94a6d" stroke="none" /><path d="M 467 652 L 487 661 L 499 662 L 514 666 L 537 666 L 551 664 L 512 656 L 497 655 L 495 653 Z" fill="rgb(236,160,138)" id="path_00d93b" stroke="none" /><path d="M 609 649 L 609 652 L 612 655 L 610 658 L 610 663 L 615 663 L 618 669 L 624 669 L 626 671 L 639 671 L 641 675 L 655 675 L 657 671 L 663 671 L 663 666 L 665 664 L 663 660 L 666 656 L 671 657 L 673 655 L 672 650 L 669 648 L 652 652 L 628 651 L 618 648 Z" fill="rgb(236,160,138)" id="path_0ae797" stroke="none" /><path d="M 380 602 L 380 605 L 385 606 L 382 607 L 384 614 L 391 616 L 393 621 L 407 621 L 410 619 L 416 619 L 416 617 L 412 615 L 415 612 L 385 605 L 383 602 Z" fill="rgb(236,160,138)" id="path_ebfedc" stroke="none" /><path d="M 841 593 L 825 581 L 816 578 L 800 578 L 791 580 L 781 586 L 779 585 L 770 594 L 760 610 L 757 611 L 746 629 L 743 627 L 741 609 L 729 612 L 723 634 L 722 648 L 718 665 L 713 674 L 713 680 L 711 681 L 711 684 L 699 708 L 691 719 L 668 742 L 652 752 L 646 753 L 643 756 L 633 760 L 667 751 L 680 745 L 681 741 L 686 742 L 693 739 L 722 720 L 737 728 L 757 729 L 758 727 L 766 725 L 770 726 L 773 723 L 781 721 L 806 706 L 810 700 L 812 701 L 830 683 L 840 667 L 849 646 L 851 636 L 851 617 L 846 601 Z" fill="rgb(236,160,138)" id="path_f43ebf" stroke="none" /><path d="M 329 563 L 332 583 L 336 588 L 335 593 L 338 598 L 337 595 L 340 594 L 340 592 L 337 591 L 336 586 L 337 576 L 333 575 L 334 570 L 332 568 L 332 564 Z" fill="rgb(236,160,138)" id="path_11e1e4" stroke="none" /><path d="M 342 553 L 339 560 L 344 562 L 346 572 L 348 574 L 348 580 L 345 586 L 346 600 L 344 601 L 342 596 L 339 602 L 341 600 L 343 602 L 341 606 L 344 607 L 344 611 L 346 615 L 348 615 L 348 585 L 351 580 L 352 565 L 348 559 L 347 553 L 344 556 Z" fill="rgb(236,160,138)" id="path_1e6beb" stroke="none" /><path d="M 333 536 L 331 536 L 329 545 L 329 560 L 331 561 L 333 560 L 333 554 L 335 552 L 332 545 L 337 544 L 337 537 L 334 540 Z" fill="rgb(236,160,138)" id="path_de04f1" stroke="none" /><path d="M 724 486 L 722 488 L 719 485 L 717 486 L 714 501 L 716 504 L 720 501 L 721 490 Z" fill="rgb(236,160,138)" id="path_57f61c" stroke="none" /><path d="M 713 447 L 715 460 L 719 469 L 727 477 L 729 488 L 732 492 L 735 505 L 736 522 L 748 537 L 748 514 L 742 485 L 734 468 L 724 454 Z" fill="rgb(236,160,138)" id="path_23eead" stroke="none" /><path d="M 470 294 L 470 320 L 476 351 L 481 358 L 481 363 L 488 375 L 505 396 L 527 413 L 550 426 L 568 432 L 574 436 L 578 436 L 596 445 L 608 448 L 630 458 L 634 458 L 638 461 L 652 465 L 669 473 L 673 477 L 692 485 L 678 470 L 662 459 L 660 460 L 657 456 L 651 453 L 648 454 L 647 451 L 615 437 L 612 438 L 610 435 L 602 432 L 595 432 L 591 428 L 550 412 L 547 413 L 546 410 L 533 403 L 531 405 L 529 400 L 525 400 L 524 397 L 513 389 L 499 375 L 492 365 L 489 364 L 490 362 L 479 343 L 477 335 L 473 334 L 475 329 L 472 319 Z" fill="rgb(236,160,138)" id="path_a8edfd" stroke="none" /><path d="M 477 694 L 482 701 L 489 705 L 512 709 L 532 707 L 550 698 L 543 696 L 543 699 L 539 698 L 536 702 L 514 706 L 507 704 L 503 705 L 502 704 L 504 701 L 502 704 L 496 703 L 500 699 L 518 695 L 535 696 L 534 694 L 512 695 L 507 693 L 506 695 L 499 696 L 498 698 L 490 699 L 481 697 L 480 693 Z" fill="rgb(185,96,98)" id="path_e59ba8" stroke="none" /><path d="M 471 656 L 472 658 L 507 668 L 528 669 L 547 667 L 514 667 L 499 663 L 487 662 Z" fill="rgb(185,96,98)" id="path_9009bf" stroke="none" /><path d="M 796 622 L 780 629 L 765 643 L 756 655 L 748 676 L 759 678 L 768 686 L 764 678 L 752 674 L 751 672 L 761 653 L 769 644 L 772 647 L 781 649 L 790 658 L 793 663 L 794 672 L 796 673 L 796 664 L 792 654 L 781 645 L 769 644 L 774 637 Z" fill="rgb(185,96,98)" id="path_eda0b1" stroke="none" /><path d="M 847 599 L 846 600 L 852 617 L 852 636 L 847 655 L 831 683 L 820 695 L 806 707 L 786 720 L 803 711 L 820 697 L 832 684 L 846 661 L 852 644 L 854 632 L 853 616 L 850 603 Z" fill="rgb(185,96,98)" id="path_07806c" stroke="none" /><path d="M 958 345 L 958 347 L 968 349 L 988 357 L 1005 368 L 1028 391 L 1035 402 L 1045 426 L 1047 440 L 1045 472 L 1038 491 L 1039 492 L 1049 473 L 1054 448 L 1052 424 L 1043 399 L 1035 388 L 1020 373 L 1009 365 L 981 351 Z" fill="rgb(185,96,98)" id="path_fe03e4" stroke="none" /><path d="M 374 222 L 338 223 L 316 229 L 289 243 L 273 258 L 261 277 L 254 299 L 253 322 L 257 343 L 258 312 L 262 295 L 270 277 L 285 257 L 303 242 L 326 231 L 352 224 L 368 224 Z" fill="rgb(185,96,98)" id="path_570899" stroke="none" /><path d="M 457 189 L 459 190 L 481 179 L 517 166 L 565 155 L 593 152 L 651 153 L 641 150 L 652 149 L 685 153 L 716 160 L 749 171 L 772 181 L 801 197 L 835 221 L 886 273 L 908 306 L 908 303 L 883 261 L 865 239 L 834 209 L 820 198 L 808 192 L 783 175 L 743 157 L 694 143 L 651 137 L 603 137 L 576 140 L 544 147 L 517 156 L 500 165 L 496 164 L 495 167 L 492 166 Z" fill="rgb(185,96,98)" id="path_7c7cd5" stroke="none" /><path d="M 755 1824 L 749 1829 L 751 1831 L 750 1833 L 744 1834 L 729 1844 L 704 1850 L 690 1850 L 661 1845 L 642 1832 L 640 1833 L 639 1842 L 649 1851 L 665 1858 L 671 1858 L 672 1860 L 678 1860 L 680 1858 L 681 1862 L 708 1862 L 723 1858 L 740 1850 L 745 1846 L 745 1841 L 749 1843 L 755 1834 Z" fill="rgb(227,230,230)" id="path_53aac5" stroke="none" /><path d="M 475 1769 L 473 1776 L 470 1775 L 466 1777 L 464 1780 L 459 1782 L 458 1785 L 454 1784 L 445 1788 L 435 1798 L 431 1799 L 427 1804 L 420 1806 L 418 1809 L 414 1807 L 392 1812 L 357 1812 L 324 1804 L 317 1800 L 314 1801 L 309 1795 L 308 1798 L 310 1800 L 308 1801 L 308 1813 L 313 1817 L 317 1817 L 335 1825 L 359 1829 L 395 1828 L 392 1826 L 393 1825 L 401 1827 L 413 1825 L 421 1820 L 425 1820 L 425 1816 L 427 1818 L 437 1811 L 435 1809 L 440 1808 L 452 1800 L 457 1800 L 474 1786 Z" fill="rgb(227,230,230)" id="path_2c5dc5" stroke="none" /><path d="M 669 1740 L 663 1740 L 654 1736 L 656 1752 L 661 1743 L 663 1743 L 664 1746 Z" fill="rgb(227,230,230)" id="path_a258d9" stroke="none" /><path d="M 928 1816 L 927 1786 L 922 1786 L 919 1783 L 919 1778 L 906 1779 L 903 1776 L 898 1776 L 896 1771 L 889 1770 L 890 1768 L 895 1767 L 874 1763 L 871 1758 L 865 1758 L 863 1756 L 850 1756 L 847 1749 L 834 1749 L 832 1747 L 818 1745 L 815 1742 L 809 1742 L 799 1738 L 786 1738 L 784 1735 L 778 1735 L 768 1731 L 754 1731 L 752 1729 L 744 1728 L 728 1729 L 738 1752 L 751 1752 L 752 1746 L 754 1744 L 767 1745 L 770 1753 L 791 1753 L 794 1761 L 815 1761 L 816 1767 L 809 1768 L 808 1771 L 823 1771 L 826 1776 L 847 1777 L 849 1785 L 863 1785 L 864 1792 L 872 1794 L 872 1807 L 866 1808 L 863 1812 L 858 1812 L 855 1808 L 849 1808 L 847 1816 L 833 1816 L 832 1823 L 825 1824 L 823 1832 L 809 1832 L 807 1840 L 769 1840 L 767 1848 L 760 1847 L 758 1845 L 760 1840 L 758 1840 L 756 1844 L 747 1852 L 734 1860 L 724 1864 L 704 1868 L 685 1868 L 667 1865 L 646 1856 L 641 1851 L 640 1853 L 642 1854 L 639 1856 L 450 1856 L 448 1848 L 432 1849 L 418 1848 L 416 1846 L 386 1846 L 384 1844 L 346 1844 L 343 1840 L 314 1840 L 312 1832 L 290 1832 L 289 1826 L 295 1824 L 266 1824 L 265 1809 L 257 1807 L 257 1793 L 250 1792 L 249 1786 L 256 1785 L 258 1777 L 279 1777 L 282 1769 L 311 1771 L 311 1768 L 298 1768 L 298 1761 L 318 1761 L 319 1765 L 322 1765 L 326 1759 L 322 1759 L 321 1754 L 330 1753 L 331 1751 L 336 1753 L 341 1749 L 342 1745 L 322 1744 L 265 1747 L 255 1751 L 242 1751 L 239 1756 L 234 1756 L 232 1758 L 226 1758 L 216 1762 L 202 1762 L 200 1767 L 194 1767 L 193 1780 L 207 1780 L 209 1783 L 208 1786 L 202 1786 L 202 1791 L 208 1791 L 210 1793 L 210 1801 L 206 1802 L 206 1807 L 210 1810 L 210 1823 L 216 1823 L 217 1816 L 219 1818 L 219 1824 L 223 1825 L 225 1830 L 232 1831 L 231 1833 L 226 1833 L 226 1855 L 255 1856 L 258 1858 L 258 1863 L 263 1863 L 265 1866 L 272 1866 L 275 1863 L 279 1863 L 282 1867 L 289 1867 L 290 1871 L 351 1872 L 354 1875 L 359 1875 L 362 1872 L 383 1872 L 386 1877 L 399 1875 L 401 1873 L 416 1873 L 418 1875 L 418 1879 L 425 1880 L 494 1880 L 497 1882 L 504 1882 L 505 1884 L 535 1884 L 538 1887 L 567 1887 L 569 1884 L 576 1884 L 578 1887 L 608 1887 L 610 1889 L 615 1889 L 616 1887 L 631 1887 L 633 1884 L 639 1884 L 642 1889 L 657 1887 L 711 1887 L 712 1880 L 735 1882 L 737 1873 L 760 1872 L 776 1873 L 778 1875 L 783 1875 L 785 1873 L 799 1873 L 802 1870 L 808 1870 L 818 1866 L 831 1866 L 834 1859 L 847 1859 L 857 1855 L 871 1855 L 871 1850 L 873 1848 L 888 1850 L 882 1849 L 882 1846 L 895 1847 L 895 1841 L 897 1839 L 903 1839 L 903 1834 L 905 1832 L 912 1832 L 912 1826 L 914 1824 L 927 1823 Z" fill="rgb(227,230,230)" id="path_bf68f7" stroke="none" /><path d="M 636 1732 L 634 1729 L 617 1729 L 613 1731 L 608 1728 L 576 1729 L 568 1735 L 561 1735 L 560 1733 L 550 1734 L 547 1729 L 545 1729 L 541 1734 L 535 1736 L 530 1736 L 528 1734 L 505 1734 L 504 1732 L 501 1732 L 498 1736 L 491 1733 L 487 1736 L 473 1736 L 473 1743 L 476 1752 L 495 1749 L 498 1746 L 514 1746 L 523 1748 L 527 1746 L 540 1745 L 544 1749 L 551 1749 L 553 1747 L 579 1746 L 585 1743 L 608 1743 L 610 1739 L 635 1736 Z" fill="rgb(227,230,230)" id="path_fd1a2d" stroke="none" /><path d="M 669 1701 L 674 1703 L 675 1701 L 679 1700 L 681 1703 L 687 1705 L 703 1702 L 701 1700 L 680 1698 Z" fill="rgb(227,230,230)" id="path_c78963" stroke="none" /><path d="M 392 1695 L 398 1699 L 423 1699 L 424 1701 L 431 1702 L 436 1699 L 419 1690 L 402 1688 L 401 1693 L 414 1694 L 414 1696 L 401 1696 L 398 1694 L 398 1691 Z" fill="rgb(227,230,230)" id="path_a90701" stroke="none" /><path d="M 864 1364 L 857 1364 L 853 1361 L 849 1362 L 849 1367 L 846 1369 L 846 1376 L 841 1378 L 841 1383 L 838 1385 L 838 1391 L 842 1394 L 842 1399 L 848 1399 L 849 1376 L 864 1376 L 865 1369 L 866 1376 L 869 1376 L 869 1370 Z" fill="rgb(227,230,230)" id="path_4fcfb1" stroke="none" /><path d="M 841 1332 L 841 1335 L 848 1336 L 841 1337 L 841 1352 L 848 1351 L 849 1336 L 850 1351 L 852 1353 L 853 1337 L 848 1332 Z" fill="rgb(227,230,230)" id="path_0fee5e" stroke="none" /><path d="M 772 1273 L 768 1271 L 764 1274 L 762 1271 L 766 1267 L 763 1268 L 761 1266 L 762 1263 L 752 1268 L 754 1271 L 754 1280 L 766 1280 L 767 1274 Z" fill="rgb(227,230,230)" id="path_97d1c9" stroke="none" /><path d="M 720 1200 L 707 1201 L 705 1203 L 705 1207 L 714 1207 L 716 1211 L 719 1207 Z" fill="rgb(227,230,230)" id="path_ba33c4" stroke="none" /><path d="M 649 973 L 641 990 L 638 1001 L 636 1035 L 638 1032 L 639 1033 L 637 1043 L 641 1072 L 638 1090 L 641 1112 L 647 1112 L 649 1114 L 649 1119 L 647 1121 L 642 1121 L 641 1118 L 639 1119 L 641 1121 L 641 1130 L 645 1138 L 651 1168 L 653 1167 L 655 1171 L 655 1155 L 651 1151 L 651 1146 L 653 1144 L 663 1144 L 665 1146 L 665 1152 L 679 1152 L 681 1154 L 681 1160 L 687 1160 L 689 1162 L 689 1168 L 696 1168 L 696 1162 L 698 1160 L 703 1160 L 705 1167 L 710 1167 L 712 1169 L 710 1182 L 714 1185 L 720 1186 L 721 1198 L 722 1187 L 720 1184 L 719 1175 L 714 1164 L 714 1159 L 709 1148 L 708 1140 L 704 1135 L 703 1122 L 700 1119 L 697 1106 L 694 1102 L 691 1085 L 688 1081 L 688 1074 L 682 1063 L 680 1051 L 676 1046 L 675 1036 L 669 1022 L 665 1020 L 665 1012 L 661 1006 L 660 999 Z" fill="rgb(227,230,230)" id="path_7178d7" stroke="none" /><path d="M 410 856 L 407 857 L 405 869 L 404 865 L 402 865 L 401 868 L 399 865 L 393 866 L 393 872 L 400 873 L 401 887 L 399 890 L 393 889 L 393 892 L 398 892 L 398 896 L 403 883 L 401 877 L 403 874 L 405 876 Z" fill="rgb(227,230,230)" id="path_b1340c" stroke="none" /><path d="M 386 832 L 399 833 L 401 835 L 409 836 L 410 838 L 405 839 L 407 845 L 407 854 L 411 853 L 414 835 L 402 834 L 399 832 Z" fill="rgb(227,230,230)" id="path_9afd13" stroke="none" /><path d="M 338 832 L 352 833 L 353 840 L 367 840 L 368 832 L 354 833 L 354 829 L 383 829 L 370 829 L 368 827 L 355 826 L 351 823 L 342 822 L 346 825 L 350 824 L 352 826 L 350 828 L 345 828 L 344 830 L 338 830 Z" fill="rgb(227,230,230)" id="path_171bd4" stroke="none" /><path d="M 326 752 L 350 756 L 354 759 L 368 760 L 370 762 L 401 765 L 400 761 L 370 760 L 368 756 L 355 758 L 351 754 L 351 745 L 345 745 L 345 754 Z" fill="rgb(227,230,230)" id="path_2eb0f5" stroke="none" /><path d="M 432 738 L 441 745 L 439 750 L 433 749 L 432 752 L 441 754 L 441 760 L 444 762 L 444 768 L 448 770 L 441 772 L 466 777 L 484 776 L 487 768 L 486 761 L 459 752 Z" fill="rgb(227,230,230)" id="path_33100c" stroke="none" /><path d="M 368 678 L 369 682 L 376 689 L 377 698 L 383 699 L 385 704 L 389 706 L 389 709 L 384 716 L 386 721 L 392 720 L 396 716 L 399 716 L 401 720 L 404 719 L 406 721 L 407 728 L 409 730 L 420 733 L 421 737 L 428 737 L 423 732 L 412 726 L 378 692 L 372 681 Z" fill="rgb(227,230,230)" id="path_fb723b" stroke="none" /><path d="M 340 615 L 337 618 L 337 624 L 342 621 L 345 624 L 342 626 L 342 631 L 338 634 L 329 633 L 329 639 L 335 639 L 338 642 L 337 647 L 344 648 L 345 641 L 353 642 L 351 639 L 350 627 Z" fill="rgb(227,230,230)" id="path_27c8aa" stroke="none" /><path d="M 384 598 L 386 601 L 402 607 L 404 606 L 399 605 L 396 601 L 397 600 L 416 603 L 416 601 L 406 601 L 396 598 L 388 593 Z" fill="rgb(227,230,230)" id="path_ff42ed" stroke="none" /><path d="M 578 569 L 578 576 L 588 592 L 611 610 L 620 611 L 627 614 L 656 613 L 658 610 L 665 609 L 642 609 L 640 613 L 633 613 L 631 609 L 622 608 L 616 610 L 609 608 L 598 599 L 597 595 L 593 593 L 593 586 L 591 585 L 589 588 L 579 575 Z" fill="rgb(227,230,230)" id="path_a8d76c" stroke="none" /><path d="M 371 520 L 372 535 L 377 548 L 386 560 L 392 561 L 401 568 L 414 570 L 417 572 L 443 571 L 459 564 L 464 559 L 462 558 L 460 561 L 440 570 L 419 569 L 414 563 L 402 563 L 400 565 L 398 562 L 393 562 L 389 556 L 383 553 L 382 548 L 377 545 L 374 539 L 375 528 L 373 527 L 373 522 L 375 519 L 373 521 Z" fill="rgb(227,230,230)" id="path_489bb3" stroke="none" /><path d="M 468 513 L 468 516 L 470 517 L 470 524 L 468 525 L 468 528 L 473 531 L 471 536 L 473 539 L 477 528 L 477 521 L 475 520 L 476 513 L 474 513 L 474 528 L 470 527 L 471 516 L 470 513 Z" fill="rgb(227,230,230)" id="path_d3993f" stroke="none" /><path d="M 332 488 L 333 493 L 336 494 L 331 498 L 331 511 L 336 514 L 333 521 L 336 521 L 339 527 L 343 530 L 349 552 L 352 554 L 350 555 L 351 559 L 354 562 L 354 566 L 359 575 L 368 585 L 370 590 L 381 597 L 380 594 L 384 593 L 384 590 L 376 584 L 368 575 L 367 570 L 363 567 L 363 563 L 360 560 L 358 546 L 354 541 L 354 514 L 357 507 L 356 500 L 360 499 L 364 482 L 368 480 L 384 462 L 394 454 L 399 454 L 402 449 L 436 448 L 455 454 L 463 459 L 481 480 L 489 498 L 491 512 L 489 543 L 481 564 L 475 570 L 474 574 L 456 592 L 449 593 L 440 598 L 433 599 L 432 601 L 419 602 L 421 605 L 417 607 L 418 609 L 431 609 L 443 604 L 450 603 L 460 596 L 463 596 L 464 594 L 461 593 L 464 590 L 468 591 L 484 575 L 484 572 L 489 565 L 487 561 L 491 561 L 497 539 L 509 533 L 527 532 L 541 538 L 545 541 L 545 543 L 550 544 L 554 548 L 554 568 L 557 578 L 557 587 L 566 607 L 577 619 L 577 623 L 581 624 L 594 635 L 608 640 L 610 643 L 619 645 L 616 642 L 617 640 L 632 641 L 613 636 L 606 630 L 601 629 L 599 626 L 593 625 L 576 607 L 576 603 L 572 600 L 566 584 L 566 577 L 564 575 L 563 553 L 564 546 L 566 544 L 566 537 L 569 535 L 572 522 L 587 503 L 591 503 L 596 496 L 608 491 L 610 488 L 616 488 L 617 486 L 623 486 L 626 483 L 648 482 L 655 483 L 658 486 L 667 486 L 674 491 L 680 492 L 684 496 L 688 496 L 706 514 L 706 520 L 710 522 L 711 527 L 714 530 L 715 543 L 719 546 L 719 560 L 721 569 L 720 576 L 716 578 L 715 591 L 711 594 L 710 602 L 706 605 L 705 609 L 688 625 L 688 628 L 685 625 L 676 632 L 663 636 L 665 638 L 664 639 L 659 638 L 656 640 L 634 641 L 637 643 L 635 646 L 626 647 L 655 647 L 658 644 L 661 645 L 661 641 L 664 641 L 665 645 L 671 644 L 674 641 L 680 640 L 689 635 L 690 631 L 693 633 L 702 628 L 705 622 L 709 623 L 713 618 L 727 609 L 738 606 L 753 607 L 756 605 L 758 607 L 763 598 L 773 587 L 774 581 L 772 577 L 768 576 L 768 573 L 765 568 L 762 567 L 760 560 L 752 552 L 752 548 L 749 548 L 749 544 L 744 540 L 738 530 L 728 521 L 724 514 L 715 508 L 709 501 L 704 501 L 704 497 L 701 495 L 698 496 L 697 492 L 693 491 L 687 486 L 685 490 L 682 490 L 682 484 L 665 477 L 661 478 L 663 478 L 667 482 L 666 483 L 658 483 L 656 481 L 642 479 L 642 477 L 650 474 L 643 476 L 640 474 L 626 475 L 623 477 L 612 478 L 606 482 L 603 482 L 578 499 L 577 503 L 567 514 L 562 527 L 557 533 L 554 533 L 552 530 L 548 530 L 535 523 L 502 523 L 498 516 L 498 499 L 487 475 L 479 463 L 477 465 L 475 463 L 476 461 L 463 450 L 455 448 L 450 444 L 448 448 L 425 445 L 423 443 L 425 441 L 433 441 L 431 439 L 418 439 L 415 441 L 402 442 L 400 444 L 392 445 L 379 450 L 370 457 L 368 456 L 368 460 L 362 460 L 349 469 L 341 477 L 341 479 L 337 481 L 335 486 L 336 488 Z" fill="rgb(227,230,230)" id="path_59c077" stroke="none" /><path d="M 875 357 L 869 362 L 868 365 L 866 364 L 861 373 L 855 375 L 847 384 L 847 387 L 840 391 L 843 396 L 845 396 L 849 392 L 850 388 L 851 390 L 857 388 L 865 388 L 869 390 L 870 394 L 867 397 L 851 402 L 847 405 L 847 408 L 849 409 L 848 411 L 857 411 L 858 408 L 859 410 L 870 409 L 873 413 L 871 417 L 865 420 L 851 420 L 851 423 L 849 422 L 849 419 L 846 419 L 844 424 L 851 429 L 869 435 L 871 440 L 867 443 L 857 442 L 846 436 L 842 429 L 840 429 L 838 434 L 845 440 L 855 453 L 863 458 L 865 462 L 880 470 L 885 449 L 894 430 L 894 426 L 892 426 L 890 422 L 892 420 L 895 424 L 896 420 L 896 394 L 891 377 L 881 361 Z" fill="rgb(227,230,230)" id="path_07b2a2" stroke="none" /><path d="M 784 347 L 782 349 L 783 352 L 780 352 L 777 356 L 773 368 L 769 399 L 770 409 L 773 410 L 771 411 L 773 425 L 779 442 L 782 445 L 782 448 L 785 449 L 784 453 L 790 471 L 791 479 L 794 480 L 797 476 L 802 475 L 806 468 L 808 469 L 813 463 L 812 459 L 816 458 L 822 452 L 826 440 L 830 434 L 828 432 L 831 431 L 833 424 L 833 408 L 831 407 L 833 404 L 832 400 L 829 399 L 829 392 L 827 393 L 814 377 L 813 379 L 815 381 L 812 382 L 810 377 L 812 374 Z" fill="rgb(227,230,230)" id="path_9e20bc" stroke="none" /><path d="M 492 1093 L 494 1095 L 491 1096 L 492 1098 L 508 1100 L 511 1102 L 512 1120 L 509 1132 L 506 1134 L 475 1132 L 474 1135 L 479 1135 L 481 1133 L 485 1135 L 492 1134 L 496 1137 L 493 1139 L 506 1138 L 509 1140 L 513 1137 L 517 1129 L 517 1099 L 513 1094 Z" fill="rgb(91,23,26)" id="path_e853e1" stroke="none" /><path d="M 467 657 L 469 675 L 477 692 L 482 690 L 502 690 L 513 693 L 529 692 L 550 695 L 564 681 L 574 662 L 572 661 L 567 663 L 562 673 L 551 680 L 539 682 L 513 682 L 486 677 L 474 672 L 471 666 L 470 657 Z" fill="rgb(91,23,26)" id="path_3f947b" stroke="none" /><path d="M 881 518 L 867 555 L 852 587 L 847 593 L 847 596 L 849 596 L 867 564 L 877 536 Z" fill="rgb(91,23,26)" id="path_fc7a15" stroke="none" /><path d="M 973 478 L 961 514 L 945 550 L 939 574 L 939 592 L 945 559 L 969 500 Z" fill="rgb(91,23,26)" id="path_3631b8" stroke="none" /><path d="M 772 461 L 771 467 L 774 479 L 774 505 L 769 537 L 774 525 L 777 509 L 777 484 Z" fill="rgb(91,23,26)" id="path_e11bf6" stroke="none" /><path d="M 741 431 L 751 447 L 761 471 L 765 489 L 765 505 L 767 511 L 767 485 L 762 463 L 750 440 Z" fill="rgb(91,23,26)" id="path_ca75ad" stroke="none" /><path d="M 702 428 L 700 431 L 705 439 L 704 444 L 707 445 L 705 450 L 708 450 L 707 456 L 709 457 L 710 472 L 712 473 L 710 493 L 708 496 L 710 499 L 713 498 L 714 481 L 717 480 L 721 483 L 718 471 L 713 462 L 708 441 L 711 439 L 727 454 L 738 470 L 745 486 L 750 509 L 750 541 L 753 543 L 751 538 L 753 520 L 750 506 L 751 496 L 748 494 L 748 486 L 744 481 L 743 473 L 741 471 L 741 469 L 744 468 L 742 465 L 740 467 L 737 465 L 733 458 L 732 452 L 729 452 L 717 438 L 714 438 L 711 434 L 707 434 L 704 428 Z" fill="rgb(91,23,26)" id="path_f797d3" stroke="none" /><path d="M 355 407 L 363 456 L 365 455 L 363 433 L 357 409 Z" fill="rgb(91,23,26)" id="path_09e8da" stroke="none" /><path d="M 905 392 L 907 398 L 905 401 L 904 421 L 893 450 L 898 443 L 905 423 L 908 402 L 912 406 L 916 422 L 916 451 L 907 491 L 905 510 L 901 520 L 904 524 L 904 546 L 906 552 L 905 521 L 906 513 L 908 511 L 908 500 L 911 500 L 909 495 L 912 494 L 911 487 L 915 475 L 915 466 L 918 460 L 920 433 L 919 420 L 915 405 L 910 399 L 910 396 Z" fill="rgb(91,23,26)" id="path_789b76" stroke="none" /><path d="M 522 392 L 537 403 L 559 414 L 625 438 L 657 453 L 681 470 L 691 479 L 701 492 L 705 494 L 700 485 L 702 481 L 697 482 L 682 466 L 668 456 L 654 449 L 652 446 L 646 446 L 643 442 L 624 436 L 624 433 L 615 433 L 612 430 L 605 429 L 602 427 L 605 425 L 602 427 L 597 426 L 596 424 L 578 419 L 578 416 L 567 416 L 561 411 L 544 405 L 533 399 L 529 394 Z" fill="rgb(91,23,26)" id="path_46f179" stroke="none" /><path d="M 483 394 L 473 376 L 468 371 L 446 372 L 431 377 L 412 389 L 401 401 L 397 409 L 414 399 L 431 394 L 445 392 L 463 392 L 482 396 Z" fill="rgb(91,23,26)" id="path_5062b6" stroke="none" /><path d="M 951 358 L 984 375 L 991 380 L 1005 395 L 1017 418 L 1020 431 L 1021 449 L 1021 425 L 1016 407 L 1007 392 L 987 373 L 972 364 Z" fill="rgb(91,23,26)" id="path_068a04" stroke="none" /><path d="M 336 354 L 339 388 L 347 412 L 348 420 L 356 440 L 352 420 L 340 380 Z" fill="rgb(91,23,26)" id="path_cc3083" stroke="none" /><path d="M 846 322 L 871 330 L 890 342 L 892 346 L 895 345 L 891 339 L 872 327 L 859 323 Z" fill="rgb(91,23,26)" id="path_6c618e" stroke="none" /><path d="M 634 321 L 651 334 L 686 352 L 711 362 L 752 373 L 683 347 L 652 332 Z" fill="rgb(91,23,26)" id="path_35a5aa" stroke="none" /><path d="M 512 314 L 516 331 L 524 346 L 534 358 L 544 366 L 527 344 Z" fill="rgb(91,23,26)" id="path_8fa42b" stroke="none" /><path d="M 883 295 L 899 310 L 911 330 L 912 337 L 915 337 L 912 325 L 906 314 L 896 303 Z" fill="rgb(91,23,26)" id="path_32bd03" stroke="none" /><path d="M 501 292 L 502 311 L 509 335 L 518 351 L 533 367 L 518 345 L 510 329 Z" fill="rgb(91,23,26)" id="path_e98a88" stroke="none" /><path d="M 610 287 L 636 310 L 668 330 L 713 350 L 754 363 L 750 360 L 722 351 L 673 329 L 633 305 Z" fill="rgb(91,23,26)" id="path_c21956" stroke="none" /><path d="M 443 282 L 443 285 L 437 286 L 435 289 L 430 289 L 426 292 L 428 295 L 424 296 L 413 307 L 410 307 L 409 311 L 405 315 L 401 314 L 403 317 L 397 321 L 396 326 L 390 332 L 389 336 L 387 338 L 385 334 L 386 340 L 380 354 L 378 355 L 376 353 L 378 359 L 376 367 L 372 373 L 373 380 L 371 382 L 373 432 L 375 379 L 384 350 L 404 320 L 426 298 L 445 285 Z" fill="rgb(91,23,26)" id="path_780920" stroke="none" /><path d="M 367 248 L 365 248 L 357 257 L 342 281 L 331 309 L 327 327 L 327 338 L 324 353 L 324 377 L 331 433 L 330 458 L 328 465 L 332 455 L 334 426 L 327 383 L 327 373 L 329 373 L 335 400 L 337 402 L 346 431 L 349 435 L 332 382 L 329 364 L 330 326 L 339 294 L 352 269 Z" fill="rgb(91,23,26)" id="path_0166d3" stroke="none" /><path d="M 875 247 L 903 289 L 916 316 L 922 336 L 924 336 L 917 315 L 904 288 L 888 262 Z" fill="rgb(91,23,26)" id="path_48ae5e" stroke="none" /><path d="M 723 237 L 729 242 L 749 250 L 776 264 L 816 289 L 805 279 L 779 262 L 754 249 Z" fill="rgb(91,23,26)" id="path_9f4c81" stroke="none" /><path d="M 373 236 L 358 237 L 341 241 L 326 247 L 314 255 L 305 263 L 297 274 L 290 289 L 287 304 L 298 277 L 316 258 L 339 245 L 359 239 L 371 239 Z" fill="rgb(91,23,26)" id="path_2e6a42" stroke="none" /><path d="M 833 205 L 872 243 L 850 219 Z" fill="rgb(91,23,26)" id="path_9abf25" stroke="none" /><path d="M 650 203 L 669 210 L 704 218 L 749 237 L 731 226 L 700 213 Z" fill="rgb(91,23,26)" id="path_04ef42" stroke="none" /><path d="M 691 157 L 722 166 L 765 183 L 798 200 L 825 218 L 798 198 L 760 178 L 732 167 Z" fill="rgb(91,23,26)" id="path_c2fe8e" stroke="none" /><path d="M 664 1777 L 678 1771 L 708 1769 L 694 1768 L 680 1770 L 679 1769 L 683 1767 L 681 1766 L 665 1773 Z" fill="rgb(197,198,187)" id="path_27a312" stroke="none" /><path d="M 730 1742 L 744 1771 L 747 1782 L 753 1792 L 752 1798 L 758 1808 L 759 1804 L 756 1799 L 757 1792 L 768 1792 L 769 1800 L 784 1800 L 784 1793 L 777 1793 L 776 1785 L 761 1785 L 760 1777 L 752 1777 L 754 1786 L 753 1787 L 751 1785 L 751 1782 L 748 1779 L 748 1773 L 742 1765 L 732 1743 Z" fill="rgb(197,198,187)" id="path_574f95" stroke="none" /><path d="M 732 1858 L 729 1857 L 724 1860 L 708 1864 L 681 1864 L 670 1862 L 643 1850 L 635 1840 L 634 1824 L 637 1821 L 637 1806 L 635 1806 L 632 1801 L 632 1782 L 639 1731 L 637 1734 L 636 1748 L 632 1761 L 617 1760 L 616 1753 L 583 1754 L 581 1752 L 582 1749 L 562 1750 L 560 1756 L 545 1756 L 544 1752 L 540 1752 L 537 1749 L 537 1753 L 526 1754 L 521 1752 L 520 1756 L 513 1756 L 511 1753 L 496 1754 L 495 1760 L 482 1761 L 479 1757 L 478 1762 L 473 1751 L 478 1769 L 478 1784 L 460 1801 L 444 1807 L 430 1819 L 414 1827 L 391 1831 L 360 1831 L 335 1827 L 320 1822 L 326 1826 L 345 1831 L 384 1833 L 411 1830 L 426 1824 L 430 1824 L 431 1821 L 436 1821 L 438 1824 L 448 1824 L 450 1832 L 487 1832 L 489 1835 L 536 1835 L 538 1839 L 560 1839 L 561 1837 L 568 1837 L 570 1835 L 576 1835 L 578 1839 L 600 1839 L 600 1834 L 602 1832 L 623 1832 L 625 1825 L 632 1825 L 634 1830 L 634 1841 L 637 1846 L 647 1854 L 657 1859 L 678 1865 L 706 1866 L 720 1863 Z" fill="rgb(197,198,187)" id="path_efbf96" stroke="none" /><path d="M 644 1722 L 643 1725 L 645 1723 L 647 1726 L 650 1752 L 652 1750 L 652 1755 L 655 1756 L 650 1721 L 648 1724 Z" fill="rgb(197,198,187)" id="path_529f40" stroke="none" /><path d="M 700 1704 L 708 1707 L 708 1710 L 704 1712 L 706 1712 L 710 1717 L 708 1722 L 702 1722 L 704 1725 L 713 1725 L 714 1728 L 711 1732 L 713 1732 L 717 1738 L 716 1741 L 707 1739 L 720 1746 L 722 1753 L 718 1754 L 682 1740 L 679 1740 L 682 1743 L 677 1747 L 687 1743 L 699 1748 L 698 1750 L 692 1749 L 693 1752 L 707 1750 L 716 1755 L 715 1757 L 724 1762 L 725 1766 L 723 1768 L 705 1764 L 702 1762 L 704 1759 L 686 1765 L 698 1762 L 700 1764 L 715 1768 L 715 1770 L 710 1771 L 720 1773 L 718 1770 L 725 1769 L 728 1765 L 728 1759 L 726 1762 L 722 1757 L 726 1751 L 724 1750 L 723 1744 L 720 1741 L 716 1724 L 712 1722 L 708 1705 Z" fill="rgb(197,198,187)" id="path_5c3e28" stroke="none" /><path d="M 392 1698 L 387 1697 L 359 1731 L 362 1734 L 354 1741 L 351 1749 L 376 1748 L 394 1754 L 383 1748 L 372 1746 L 374 1744 L 380 1743 L 388 1746 L 375 1738 L 374 1739 L 378 1741 L 377 1743 L 363 1745 L 354 1744 L 356 1740 L 362 1737 L 370 1737 L 362 1732 L 364 1729 L 372 1729 L 380 1732 L 377 1729 L 378 1728 L 392 1727 L 396 1730 L 394 1725 L 376 1728 L 368 1727 L 371 1722 L 380 1720 L 376 1717 L 377 1713 L 386 1714 L 387 1712 L 390 1712 L 383 1711 L 382 1707 L 387 1705 L 385 1702 L 387 1699 Z" fill="rgb(197,198,187)" id="path_167707" stroke="none" /><path d="M 692 1695 L 674 1695 L 672 1697 L 663 1698 L 650 1706 L 645 1705 L 641 1714 L 646 1706 L 650 1708 L 663 1700 L 668 1700 L 678 1696 Z" fill="rgb(197,198,187)" id="path_e0ed5e" stroke="none" /><path d="M 770 427 L 769 434 L 767 435 L 768 439 L 772 441 L 771 444 L 775 442 L 776 445 L 779 445 L 773 439 L 775 438 L 777 441 L 778 440 L 773 427 Z" fill="rgb(197,198,187)" id="path_25db6b" stroke="none" /><path d="M 796 409 L 796 412 L 798 409 L 802 412 L 799 414 L 800 416 L 807 418 L 817 418 L 826 414 L 826 411 L 823 413 L 822 411 L 802 407 Z" fill="rgb(197,198,187)" id="path_e9a3a7" stroke="none" /><path d="M 759 374 L 758 384 L 761 385 L 761 398 L 765 399 L 765 386 L 761 384 L 761 376 Z" fill="rgb(197,198,187)" id="path_925c3a" stroke="none" /></svg>