<?xml version="1.0" encoding="utf-8" ?>
<svg baseProfile="full" height="360px" version="1.1" viewBox="0,0,360,360" width="360px" xmlns="http://www.w3.org/2000/svg" xmlns:ev="http://www.w3.org/2001/xml-events" xmlns:xlink="http://www.w3.org/1999/xlink"><defs /><path d="M 239,60 L 238,61 L 223,61 L 222,62 L 220,62 L 219,63 L 218,63 L 216,65 L 212,65 L 211,66 L 209,66 L 208,67 L 207,67 L 207,68 L 205,70 L 203,70 L 203,71 L 202,72 L 201,72 L 200,73 L 199,73 L 197,75 L 196,75 L 194,77 L 194,79 L 193,80 L 192,80 L 192,81 L 190,83 L 188,83 L 188,84 L 187,85 L 186,85 L 186,86 L 185,87 L 185,89 L 184,90 L 183,90 L 183,91 L 182,92 L 182,93 L 180,95 L 180,99 L 179,100 L 178,100 L 177,101 L 175,101 L 173,99 L 173,98 L 172,97 L 172,95 L 171,94 L 171,93 L 170,93 L 169,92 L 169,90 L 168,90 L 166,88 L 166,86 L 165,86 L 164,85 L 164,83 L 163,82 L 161,82 L 160,81 L 160,79 L 159,79 L 157,77 L 157,76 L 156,76 L 155,75 L 154,75 L 153,74 L 152,74 L 149,71 L 147,71 L 146,70 L 146,68 L 145,68 L 144,67 L 141,67 L 139,65 L 138,65 L 137,64 L 133,64 L 132,63 L 130,63 L 129,62 L 125,62 L 124,61 L 107,61 L 106,62 L 102,62 L 101,63 L 99,63 L 98,64 L 97,64 L 96,65 L 93,65 L 92,66 L 91,66 L 91,67 L 90,68 L 88,68 L 87,69 L 84,69 L 82,71 L 82,72 L 81,73 L 78,73 L 77,74 L 76,74 L 76,77 L 75,78 L 71,78 L 70,79 L 70,83 L 69,84 L 66,84 L 65,85 L 65,86 L 64,87 L 63,87 L 63,89 L 61,91 L 61,92 L 59,94 L 59,97 L 58,98 L 57,98 L 57,100 L 56,101 L 56,102 L 55,103 L 55,106 L 54,107 L 54,110 L 53,111 L 53,132 L 54,133 L 54,140 L 55,141 L 55,144 L 56,145 L 56,146 L 57,147 L 57,148 L 58,148 L 59,149 L 59,154 L 60,155 L 60,156 L 61,157 L 61,160 L 63,162 L 63,163 L 66,166 L 66,168 L 68,170 L 68,171 L 69,172 L 69,173 L 70,173 L 71,174 L 71,176 L 72,176 L 74,178 L 74,179 L 76,181 L 77,181 L 78,182 L 78,184 L 79,185 L 80,185 L 81,186 L 84,186 L 85,187 L 85,188 L 86,189 L 86,190 L 87,191 L 87,192 L 88,192 L 90,194 L 90,195 L 92,195 L 93,196 L 93,197 L 94,197 L 95,198 L 96,198 L 97,199 L 98,199 L 99,200 L 99,201 L 101,201 L 102,202 L 105,202 L 106,203 L 106,204 L 107,204 L 108,205 L 108,208 L 109,208 L 110,209 L 112,209 L 114,211 L 114,212 L 117,212 L 118,213 L 118,214 L 119,215 L 119,216 L 121,216 L 122,217 L 122,218 L 123,219 L 124,219 L 125,220 L 129,220 L 131,222 L 131,224 L 133,224 L 134,225 L 134,226 L 136,226 L 137,227 L 137,228 L 139,230 L 141,230 L 142,231 L 142,232 L 143,232 L 144,233 L 145,233 L 146,234 L 147,234 L 150,237 L 150,238 L 152,238 L 153,239 L 154,239 L 155,240 L 156,240 L 157,241 L 157,243 L 158,243 L 159,244 L 160,244 L 161,245 L 162,245 L 164,247 L 164,248 L 166,248 L 167,249 L 167,250 L 168,250 L 170,252 L 171,252 L 172,253 L 172,254 L 179,254 L 183,250 L 184,250 L 185,249 L 185,247 L 186,246 L 190,246 L 191,245 L 191,244 L 192,243 L 194,243 L 195,242 L 196,242 L 196,240 L 197,239 L 198,239 L 198,238 L 199,237 L 203,237 L 203,236 L 204,235 L 205,235 L 207,233 L 208,233 L 209,232 L 209,231 L 210,230 L 212,230 L 212,229 L 214,227 L 215,227 L 217,225 L 218,225 L 219,224 L 220,224 L 220,223 L 221,222 L 224,222 L 225,221 L 225,220 L 226,219 L 227,219 L 228,218 L 229,218 L 231,216 L 232,216 L 232,215 L 233,214 L 235,214 L 235,213 L 236,212 L 237,212 L 239,210 L 240,210 L 241,209 L 242,209 L 242,207 L 243,206 L 244,206 L 245,205 L 246,205 L 247,204 L 248,204 L 249,203 L 250,203 L 251,202 L 252,202 L 253,201 L 253,199 L 254,198 L 255,198 L 256,197 L 257,197 L 260,194 L 262,194 L 264,192 L 265,192 L 265,190 L 266,189 L 268,189 L 269,188 L 269,187 L 271,185 L 272,185 L 273,184 L 273,182 L 274,181 L 276,181 L 276,179 L 277,178 L 278,178 L 280,176 L 280,174 L 283,171 L 283,169 L 284,168 L 286,168 L 286,167 L 288,165 L 288,164 L 289,163 L 289,162 L 291,160 L 291,157 L 292,156 L 293,156 L 293,155 L 294,154 L 294,150 L 295,149 L 296,149 L 296,147 L 297,146 L 297,145 L 298,144 L 298,140 L 299,139 L 299,134 L 300,133 L 300,111 L 299,110 L 299,107 L 298,106 L 298,103 L 297,102 L 297,101 L 296,100 L 296,98 L 294,96 L 294,95 L 293,94 L 293,92 L 292,91 L 292,90 L 291,90 L 290,89 L 290,87 L 289,86 L 289,85 L 288,84 L 287,84 L 286,83 L 286,82 L 283,79 L 282,79 L 281,78 L 281,77 L 280,76 L 278,76 L 276,74 L 275,74 L 274,73 L 274,71 L 273,71 L 272,70 L 269,70 L 267,68 L 267,67 L 265,67 L 264,66 L 261,66 L 259,64 L 258,64 L 257,63 L 254,63 L 253,62 L 250,62 L 249,61 L 243,61 L 242,60 Z" fill="rgb(254,3,0)" id="path_6225fb" stroke="none" /><path d="M 245,60 L 245,62 L 249,62 L 250,63 L 253,63 L 254,64 L 258,64 L 259,65 L 259,66 L 263,66 L 264,67 L 264,68 L 265,68 L 266,69 L 267,69 L 268,70 L 269,70 L 270,71 L 272,71 L 272,69 L 271,69 L 270,68 L 269,68 L 268,67 L 267,67 L 266,66 L 262,66 L 261,65 L 261,64 L 257,64 L 256,63 L 256,62 L 253,62 L 252,61 L 248,61 L 247,60 Z" fill="rgb(250,65,68)" id="path_a62834" stroke="none" /><path d="M 184,88 L 183,89 L 183,91 L 182,92 L 181,92 L 181,95 L 180,96 L 179,96 L 179,99 L 178,100 L 175,100 L 174,99 L 174,98 L 173,97 L 173,96 L 172,95 L 172,94 L 170,94 L 170,96 L 171,97 L 171,98 L 172,99 L 172,100 L 173,101 L 173,102 L 175,102 L 176,103 L 176,105 L 178,105 L 178,103 L 179,102 L 179,99 L 180,98 L 181,98 L 181,95 L 182,94 L 183,94 L 183,92 L 184,91 L 185,91 L 186,90 L 186,88 Z" fill="rgb(249,30,37)" id="path_3569ae" stroke="none" /><path d="M 55,146 L 55,148 L 56,149 L 56,151 L 57,152 L 57,154 L 58,155 L 58,156 L 59,157 L 59,158 L 60,159 L 60,160 L 61,160 L 62,161 L 62,164 L 63,165 L 63,166 L 64,166 L 65,167 L 65,169 L 66,169 L 67,170 L 67,172 L 69,172 L 69,170 L 68,170 L 67,169 L 67,167 L 66,167 L 65,166 L 65,164 L 64,163 L 64,162 L 63,162 L 62,161 L 62,158 L 61,157 L 61,156 L 60,155 L 60,154 L 59,153 L 59,152 L 58,151 L 58,149 L 57,148 L 57,146 Z" fill="rgb(251,220,208)" id="path_0cff7f" stroke="none" /><path d="M 299,133 L 299,137 L 298,138 L 298,141 L 297,142 L 297,144 L 296,145 L 296,147 L 295,148 L 295,152 L 294,153 L 293,153 L 293,154 L 292,155 L 292,156 L 291,157 L 291,158 L 290,159 L 290,160 L 289,161 L 289,162 L 288,163 L 288,165 L 287,166 L 286,166 L 286,168 L 285,169 L 284,169 L 284,171 L 286,171 L 286,169 L 287,168 L 288,168 L 288,166 L 289,165 L 290,165 L 290,164 L 291,163 L 291,162 L 292,161 L 292,160 L 293,159 L 293,158 L 294,157 L 294,156 L 295,155 L 295,151 L 296,150 L 297,150 L 297,148 L 298,147 L 298,145 L 299,144 L 299,141 L 300,140 L 300,137 L 301,136 L 301,133 Z" fill="rgb(251,220,208)" id="path_29399c" stroke="none" /><path d="M 123,60 L 123,62 L 128,62 L 129,63 L 131,63 L 132,64 L 134,64 L 135,65 L 137,65 L 138,66 L 139,66 L 140,67 L 143,67 L 144,68 L 144,69 L 145,69 L 146,70 L 148,70 L 149,71 L 149,72 L 151,72 L 151,70 L 149,70 L 148,69 L 148,68 L 147,68 L 146,67 L 143,67 L 142,66 L 142,65 L 141,65 L 140,64 L 138,64 L 137,63 L 135,63 L 134,62 L 132,62 L 131,61 L 127,61 L 126,60 Z" fill="rgb(251,220,208)" id="path_7e62b9" stroke="none" /><path d="M 94,191 L 94,193 L 93,194 L 92,194 L 92,196 L 95,196 L 96,197 L 96,199 L 97,200 L 99,200 L 100,201 L 100,202 L 101,203 L 103,203 L 105,205 L 105,206 L 106,206 L 107,207 L 108,207 L 109,208 L 109,209 L 110,209 L 112,211 L 114,211 L 115,212 L 115,213 L 116,213 L 118,215 L 120,215 L 121,216 L 121,217 L 123,217 L 124,218 L 125,218 L 126,219 L 126,221 L 127,221 L 130,224 L 131,224 L 133,226 L 134,226 L 135,227 L 138,227 L 139,228 L 139,229 L 140,230 L 140,231 L 142,231 L 143,232 L 143,233 L 144,233 L 147,236 L 148,236 L 149,237 L 150,237 L 151,238 L 151,239 L 152,239 L 154,241 L 155,241 L 156,242 L 157,242 L 158,243 L 158,244 L 159,245 L 160,245 L 161,246 L 164,246 L 165,247 L 165,249 L 168,249 L 169,250 L 169,252 L 170,252 L 171,253 L 173,253 L 174,254 L 174,256 L 176,256 L 177,255 L 178,255 L 178,253 L 179,252 L 182,252 L 182,250 L 183,249 L 186,249 L 188,247 L 189,247 L 189,245 L 190,244 L 193,244 L 193,242 L 194,241 L 197,241 L 200,238 L 201,238 L 201,237 L 202,236 L 204,236 L 205,235 L 206,235 L 206,233 L 207,232 L 210,232 L 211,231 L 211,230 L 212,229 L 214,229 L 218,225 L 220,225 L 222,223 L 222,222 L 223,221 L 224,221 L 225,220 L 227,220 L 228,219 L 228,217 L 227,216 L 227,215 L 217,215 L 216,216 L 216,218 L 215,219 L 215,223 L 214,224 L 212,224 L 211,223 L 208,223 L 208,225 L 207,226 L 207,231 L 206,232 L 204,232 L 203,231 L 198,231 L 198,232 L 197,233 L 192,233 L 192,237 L 191,238 L 191,239 L 190,240 L 188,240 L 187,239 L 184,239 L 184,240 L 183,241 L 183,246 L 182,247 L 177,247 L 176,248 L 173,248 L 172,247 L 169,247 L 168,246 L 168,245 L 167,245 L 166,244 L 166,242 L 167,241 L 168,241 L 168,239 L 166,239 L 165,240 L 161,240 L 160,239 L 159,239 L 158,238 L 158,234 L 159,233 L 160,233 L 160,231 L 158,231 L 157,232 L 150,232 L 149,231 L 145,231 L 144,230 L 144,225 L 142,223 L 137,223 L 136,222 L 136,217 L 135,217 L 134,216 L 134,215 L 128,215 L 127,216 L 124,216 L 123,215 L 121,215 L 120,214 L 120,210 L 119,209 L 119,207 L 113,207 L 112,206 L 112,199 L 110,199 L 109,200 L 107,200 L 106,199 L 105,199 L 104,198 L 104,194 L 103,193 L 103,191 Z" fill="rgb(243,4,1)" id="path_ebfe1a" stroke="none" /><path d="M 55,143 L 55,145 L 56,146 L 56,147 L 57,148 L 57,150 L 58,151 L 58,153 L 59,154 L 59,155 L 60,156 L 60,157 L 61,158 L 61,159 L 62,159 L 63,160 L 63,161 L 64,162 L 64,163 L 65,164 L 65,166 L 66,166 L 67,167 L 67,170 L 68,170 L 69,171 L 69,172 L 70,173 L 70,174 L 72,174 L 73,175 L 73,178 L 76,178 L 77,179 L 77,182 L 78,183 L 81,183 L 82,184 L 82,187 L 85,190 L 87,190 L 87,189 L 88,188 L 88,183 L 81,183 L 80,182 L 80,175 L 73,175 L 72,174 L 72,172 L 71,171 L 71,166 L 72,165 L 72,161 L 70,161 L 69,160 L 69,159 L 64,159 L 63,158 L 63,144 L 60,144 L 59,143 Z" fill="rgb(243,4,1)" id="path_f9c472" stroke="none" /><path d="M 295,141 L 295,142 L 294,143 L 290,143 L 290,145 L 289,146 L 287,146 L 287,158 L 286,159 L 282,159 L 282,160 L 281,161 L 281,166 L 280,167 L 279,167 L 279,169 L 280,170 L 280,173 L 278,175 L 274,175 L 273,176 L 271,176 L 271,182 L 270,183 L 269,183 L 268,184 L 265,184 L 263,186 L 263,190 L 262,191 L 255,191 L 254,192 L 250,192 L 249,191 L 247,191 L 247,193 L 248,193 L 249,194 L 249,198 L 248,199 L 239,199 L 239,206 L 238,207 L 236,207 L 236,208 L 235,209 L 234,209 L 233,210 L 232,210 L 231,211 L 231,215 L 233,215 L 233,214 L 234,213 L 236,213 L 237,212 L 238,212 L 238,210 L 239,209 L 241,209 L 242,208 L 243,208 L 244,207 L 245,207 L 247,205 L 248,205 L 249,204 L 249,202 L 251,200 L 254,200 L 256,198 L 257,198 L 258,197 L 259,197 L 261,195 L 261,194 L 262,193 L 264,193 L 264,192 L 266,190 L 267,190 L 267,188 L 268,187 L 270,187 L 270,186 L 271,185 L 271,184 L 272,183 L 273,183 L 274,182 L 274,181 L 275,180 L 277,180 L 278,179 L 278,178 L 279,177 L 280,177 L 281,176 L 281,175 L 283,173 L 283,172 L 286,169 L 286,167 L 287,166 L 288,166 L 288,165 L 289,164 L 289,163 L 291,161 L 291,159 L 292,158 L 292,154 L 293,153 L 294,153 L 294,152 L 295,151 L 295,146 L 297,144 L 297,141 Z" fill="rgb(243,4,1)" id="path_2bad28" stroke="none" /><path d="M 62,89 L 62,91 L 61,92 L 60,92 L 60,95 L 59,96 L 58,96 L 58,99 L 57,100 L 56,100 L 56,102 L 57,102 L 58,103 L 64,103 L 64,100 L 63,99 L 63,92 L 64,91 L 64,89 Z" fill="rgb(243,4,1)" id="path_26fc4f" stroke="none" /><path d="M 82,70 L 79,73 L 77,73 L 77,74 L 76,75 L 75,75 L 73,77 L 73,79 L 74,79 L 75,80 L 77,80 L 77,79 L 78,78 L 81,78 L 82,79 L 82,80 L 84,80 L 84,78 L 83,78 L 82,77 L 82,75 L 83,74 L 83,73 L 84,72 L 84,70 Z" fill="rgb(243,4,1)" id="path_635a33" stroke="none" /><path d="M 217,63 L 216,64 L 214,64 L 213,65 L 211,65 L 211,66 L 210,67 L 208,67 L 207,68 L 205,68 L 204,69 L 204,70 L 203,71 L 201,71 L 199,73 L 198,73 L 197,74 L 197,77 L 196,78 L 193,78 L 193,80 L 192,81 L 190,81 L 189,82 L 189,83 L 188,84 L 187,84 L 187,87 L 185,89 L 184,89 L 184,90 L 183,91 L 182,91 L 182,92 L 180,94 L 180,96 L 179,97 L 179,98 L 178,99 L 178,100 L 177,101 L 175,101 L 174,100 L 174,99 L 173,98 L 173,97 L 171,95 L 171,94 L 170,93 L 170,92 L 168,90 L 168,89 L 165,86 L 165,84 L 163,84 L 162,83 L 162,81 L 159,81 L 159,88 L 160,88 L 161,89 L 161,93 L 160,94 L 159,94 L 159,96 L 161,96 L 162,95 L 167,95 L 168,96 L 168,98 L 167,99 L 167,102 L 168,103 L 168,104 L 171,104 L 172,103 L 175,103 L 176,104 L 176,107 L 175,108 L 175,110 L 176,110 L 177,111 L 177,112 L 179,112 L 180,111 L 182,111 L 183,110 L 183,108 L 184,107 L 184,97 L 185,96 L 192,96 L 192,93 L 191,93 L 189,91 L 189,89 L 191,87 L 191,84 L 192,83 L 193,83 L 193,82 L 194,81 L 195,81 L 196,80 L 200,80 L 201,79 L 204,79 L 205,78 L 207,78 L 208,77 L 208,73 L 210,71 L 213,71 L 214,70 L 215,70 L 215,68 L 216,67 L 217,67 L 219,65 L 219,63 Z" fill="rgb(243,4,1)" id="path_d44149" stroke="none" /><path d="M 101,63 L 99,65 L 94,65 L 93,66 L 90,66 L 90,67 L 89,68 L 89,70 L 90,71 L 90,72 L 99,72 L 100,71 L 104,71 L 104,63 Z" fill="rgb(243,4,1)" id="path_6df109" stroke="none" /><path d="M 118,62 L 118,64 L 127,64 L 128,65 L 128,72 L 130,72 L 131,71 L 138,71 L 138,70 L 139,69 L 141,69 L 142,70 L 142,72 L 143,72 L 144,73 L 144,77 L 143,78 L 143,80 L 145,80 L 146,79 L 153,79 L 154,80 L 156,80 L 156,76 L 153,76 L 152,75 L 152,73 L 149,70 L 148,70 L 147,69 L 144,69 L 143,68 L 143,67 L 142,67 L 141,66 L 139,66 L 139,68 L 138,69 L 136,69 L 135,68 L 135,64 L 134,64 L 133,63 L 129,63 L 128,62 Z" fill="rgb(243,4,1)" id="path_0eea73" stroke="none" /><path d="M 232,60 L 231,61 L 231,63 L 233,63 L 234,62 L 244,62 L 245,63 L 251,63 L 252,64 L 254,64 L 255,65 L 255,70 L 257,70 L 258,71 L 258,72 L 265,72 L 266,71 L 268,71 L 269,72 L 270,72 L 271,73 L 271,79 L 272,79 L 273,80 L 278,80 L 279,81 L 279,87 L 281,87 L 282,88 L 286,88 L 288,90 L 288,93 L 287,94 L 287,102 L 288,102 L 290,104 L 292,104 L 293,103 L 295,103 L 296,102 L 297,102 L 297,100 L 296,99 L 296,97 L 294,95 L 294,93 L 293,92 L 293,91 L 292,91 L 291,90 L 291,89 L 290,89 L 289,88 L 289,87 L 287,85 L 287,83 L 286,82 L 286,81 L 285,81 L 284,80 L 284,79 L 283,79 L 282,78 L 281,78 L 278,75 L 278,74 L 277,74 L 275,72 L 272,72 L 271,71 L 271,70 L 269,68 L 266,68 L 265,67 L 265,66 L 263,66 L 262,65 L 258,65 L 257,64 L 255,64 L 254,63 L 254,62 L 251,62 L 250,61 L 246,61 L 245,60 Z" fill="rgb(243,4,1)" id="path_9c1b9b" stroke="none" /><path d="M 54,139 L 54,141 L 55,141 L 56,142 L 56,148 L 57,148 L 58,149 L 58,150 L 59,151 L 59,153 L 60,154 L 60,158 L 61,158 L 62,159 L 62,162 L 63,162 L 64,163 L 64,165 L 65,165 L 66,166 L 66,169 L 67,169 L 68,170 L 69,170 L 70,171 L 70,172 L 71,172 L 72,173 L 72,177 L 73,177 L 74,178 L 75,178 L 76,179 L 76,182 L 79,182 L 80,183 L 80,186 L 84,190 L 85,190 L 86,191 L 86,192 L 87,192 L 89,194 L 90,194 L 91,195 L 91,196 L 93,196 L 94,197 L 94,198 L 97,198 L 98,199 L 98,201 L 100,201 L 101,202 L 102,202 L 103,203 L 103,204 L 104,205 L 106,205 L 107,206 L 109,206 L 110,207 L 111,207 L 112,208 L 112,210 L 113,211 L 113,212 L 115,212 L 116,213 L 116,214 L 118,214 L 119,213 L 119,210 L 120,209 L 120,207 L 118,207 L 117,208 L 113,208 L 112,207 L 112,201 L 106,201 L 105,200 L 105,199 L 103,197 L 103,193 L 102,192 L 100,192 L 99,193 L 96,193 L 95,192 L 91,192 L 90,191 L 89,191 L 88,190 L 88,184 L 87,183 L 81,183 L 80,182 L 80,179 L 79,178 L 79,176 L 77,176 L 76,175 L 73,175 L 72,174 L 72,168 L 71,167 L 71,162 L 70,161 L 70,159 L 65,159 L 63,157 L 63,150 L 64,149 L 64,146 L 63,145 L 63,143 L 57,143 L 56,142 L 56,139 Z" fill="rgb(252,9,9)" id="path_296478" stroke="none" /><path d="M 298,132 L 298,133 L 297,134 L 297,135 L 296,136 L 296,138 L 295,139 L 295,145 L 294,146 L 292,146 L 291,145 L 291,143 L 289,143 L 289,146 L 288,147 L 288,149 L 289,150 L 289,157 L 287,159 L 286,159 L 285,160 L 282,160 L 281,159 L 279,159 L 279,161 L 280,162 L 280,165 L 279,166 L 279,175 L 278,176 L 274,176 L 273,175 L 271,175 L 271,182 L 270,183 L 267,183 L 266,184 L 264,184 L 264,186 L 263,187 L 263,191 L 262,192 L 259,192 L 258,191 L 251,191 L 251,193 L 250,194 L 247,194 L 247,199 L 245,201 L 243,201 L 242,200 L 240,200 L 240,201 L 239,202 L 239,206 L 238,207 L 232,207 L 231,208 L 231,214 L 230,215 L 227,215 L 226,216 L 219,216 L 218,215 L 216,215 L 216,217 L 217,218 L 217,220 L 216,221 L 215,221 L 215,222 L 214,223 L 210,223 L 210,225 L 209,226 L 208,226 L 207,227 L 207,230 L 206,231 L 203,231 L 202,232 L 200,232 L 200,234 L 199,235 L 197,235 L 195,233 L 195,231 L 192,231 L 192,233 L 193,234 L 193,237 L 190,240 L 183,240 L 183,246 L 182,247 L 178,247 L 178,248 L 177,249 L 170,249 L 169,248 L 169,247 L 168,246 L 168,242 L 167,241 L 167,240 L 161,240 L 160,239 L 160,234 L 159,233 L 159,232 L 157,232 L 156,231 L 145,231 L 144,230 L 144,223 L 142,223 L 142,224 L 141,225 L 139,225 L 138,224 L 138,223 L 137,223 L 136,222 L 136,216 L 135,215 L 133,215 L 132,216 L 128,216 L 127,215 L 125,215 L 124,216 L 123,216 L 123,218 L 124,218 L 125,219 L 127,219 L 128,220 L 128,221 L 129,221 L 130,222 L 130,223 L 132,223 L 133,224 L 133,225 L 134,226 L 134,227 L 135,227 L 138,230 L 140,230 L 141,231 L 141,232 L 143,232 L 144,233 L 144,234 L 145,235 L 147,235 L 148,236 L 148,237 L 152,237 L 154,239 L 154,240 L 155,241 L 155,242 L 158,242 L 160,244 L 160,245 L 161,245 L 162,246 L 162,247 L 164,247 L 166,249 L 166,250 L 167,250 L 168,251 L 170,251 L 173,254 L 173,255 L 174,255 L 175,256 L 177,256 L 177,255 L 179,253 L 181,253 L 181,252 L 182,251 L 183,251 L 184,250 L 185,250 L 185,249 L 186,248 L 188,248 L 188,247 L 190,245 L 192,245 L 192,244 L 193,243 L 195,243 L 195,242 L 197,240 L 199,240 L 201,238 L 202,238 L 202,236 L 203,235 L 204,235 L 205,234 L 207,234 L 207,232 L 208,231 L 210,231 L 211,230 L 213,230 L 213,229 L 214,228 L 216,228 L 218,226 L 218,225 L 220,223 L 221,223 L 221,222 L 222,221 L 223,221 L 224,220 L 226,220 L 226,219 L 227,218 L 230,218 L 231,217 L 231,216 L 232,215 L 234,215 L 234,214 L 235,213 L 237,213 L 237,212 L 238,211 L 239,211 L 240,210 L 241,210 L 241,209 L 242,208 L 244,208 L 244,207 L 246,205 L 247,205 L 247,203 L 248,202 L 249,202 L 250,201 L 252,201 L 254,199 L 254,198 L 255,197 L 256,197 L 257,196 L 259,196 L 260,195 L 262,195 L 262,192 L 263,191 L 266,191 L 266,190 L 267,189 L 269,189 L 270,188 L 270,187 L 271,186 L 271,185 L 272,184 L 274,184 L 277,181 L 277,179 L 278,178 L 279,178 L 279,176 L 280,175 L 281,175 L 281,174 L 283,172 L 284,172 L 284,170 L 285,169 L 285,168 L 286,167 L 287,167 L 287,165 L 288,164 L 288,163 L 289,162 L 289,161 L 290,160 L 290,158 L 291,157 L 293,157 L 293,153 L 294,152 L 295,152 L 295,148 L 296,147 L 297,147 L 297,141 L 298,140 L 299,140 L 299,136 L 300,135 L 300,132 Z" fill="rgb(252,9,9)" id="path_64fc12" stroke="none" /><path d="M 54,113 L 54,118 L 53,119 L 52,119 L 52,128 L 53,128 L 54,129 L 54,134 L 56,134 L 56,127 L 55,126 L 55,121 L 56,120 L 56,113 Z" fill="rgb(252,9,9)" id="path_a6d6e0" stroke="none" /><path d="M 61,90 L 61,95 L 60,96 L 60,97 L 59,98 L 59,101 L 58,102 L 56,102 L 56,105 L 55,106 L 54,106 L 54,108 L 56,108 L 56,105 L 57,104 L 58,104 L 59,103 L 61,103 L 62,104 L 64,104 L 64,102 L 63,102 L 62,101 L 62,98 L 64,96 L 64,93 L 63,92 L 63,90 Z" fill="rgb(252,9,9)" id="path_01dce3" stroke="none" /><path d="M 258,64 L 257,65 L 255,65 L 255,71 L 265,71 L 266,72 L 270,72 L 271,73 L 271,80 L 278,80 L 279,81 L 279,82 L 281,84 L 282,84 L 283,85 L 283,86 L 285,88 L 287,88 L 288,89 L 288,91 L 287,92 L 287,98 L 288,99 L 288,102 L 289,103 L 289,104 L 291,104 L 292,103 L 294,103 L 295,104 L 295,109 L 296,109 L 297,110 L 297,117 L 296,118 L 295,118 L 295,120 L 296,120 L 297,121 L 297,126 L 299,126 L 299,113 L 300,112 L 300,110 L 298,110 L 297,109 L 297,105 L 298,104 L 298,102 L 296,102 L 295,101 L 295,95 L 294,95 L 293,94 L 293,93 L 290,90 L 289,90 L 288,89 L 288,85 L 286,85 L 284,83 L 284,81 L 282,79 L 282,77 L 279,77 L 278,76 L 278,75 L 277,74 L 277,73 L 274,73 L 273,72 L 272,72 L 271,71 L 271,69 L 267,69 L 266,68 L 264,68 L 263,67 L 262,67 L 260,65 L 260,64 Z" fill="rgb(252,9,9)" id="path_d35afa" stroke="none" /><path d="M 229,60 L 229,61 L 228,62 L 219,62 L 218,63 L 216,63 L 216,64 L 215,65 L 213,65 L 212,66 L 211,66 L 211,67 L 209,69 L 205,69 L 204,70 L 202,70 L 202,72 L 200,74 L 199,74 L 198,75 L 197,75 L 197,76 L 195,78 L 194,78 L 193,79 L 192,79 L 191,80 L 191,81 L 189,83 L 189,85 L 188,86 L 185,86 L 185,92 L 184,93 L 182,93 L 182,94 L 181,95 L 181,97 L 180,98 L 178,98 L 178,101 L 177,102 L 174,102 L 173,101 L 173,99 L 172,99 L 171,98 L 171,96 L 170,95 L 170,91 L 169,91 L 168,90 L 168,88 L 167,87 L 166,87 L 161,82 L 161,80 L 160,80 L 159,79 L 159,78 L 158,77 L 157,77 L 156,76 L 156,75 L 155,74 L 154,74 L 153,73 L 148,73 L 147,72 L 147,70 L 146,70 L 145,69 L 145,68 L 143,68 L 142,67 L 142,66 L 141,66 L 140,65 L 137,65 L 136,64 L 135,64 L 134,63 L 131,63 L 130,62 L 126,62 L 125,61 L 123,61 L 122,62 L 109,62 L 108,61 L 106,61 L 105,62 L 101,62 L 100,63 L 98,63 L 97,64 L 95,64 L 94,65 L 92,65 L 92,66 L 91,67 L 87,67 L 86,68 L 86,69 L 84,71 L 80,71 L 79,72 L 79,74 L 78,75 L 74,75 L 72,77 L 72,79 L 71,80 L 70,80 L 70,82 L 69,83 L 67,83 L 66,84 L 65,84 L 65,85 L 64,86 L 64,88 L 70,88 L 71,87 L 71,83 L 72,82 L 72,81 L 73,80 L 75,80 L 76,79 L 79,79 L 80,78 L 80,77 L 81,76 L 82,76 L 83,75 L 83,74 L 84,73 L 85,73 L 86,72 L 88,72 L 89,71 L 90,71 L 90,70 L 91,69 L 94,69 L 95,70 L 96,70 L 97,71 L 100,71 L 101,70 L 104,70 L 104,65 L 105,64 L 123,64 L 124,63 L 127,63 L 129,65 L 129,68 L 128,69 L 127,69 L 127,71 L 129,71 L 130,72 L 142,72 L 143,73 L 143,77 L 144,78 L 144,79 L 146,79 L 147,80 L 149,80 L 149,79 L 150,78 L 152,78 L 153,79 L 154,79 L 155,80 L 158,80 L 159,81 L 159,87 L 160,88 L 160,90 L 159,91 L 159,93 L 163,93 L 165,95 L 166,95 L 167,96 L 167,97 L 168,98 L 168,101 L 167,102 L 167,104 L 174,104 L 175,105 L 175,108 L 176,109 L 176,111 L 177,111 L 178,112 L 181,112 L 181,109 L 182,108 L 184,108 L 184,103 L 183,103 L 182,102 L 182,99 L 183,98 L 184,98 L 184,93 L 185,92 L 187,92 L 189,94 L 189,96 L 191,96 L 191,94 L 190,93 L 190,91 L 191,90 L 192,90 L 192,89 L 193,88 L 195,88 L 195,86 L 193,86 L 192,85 L 192,83 L 195,80 L 198,80 L 198,79 L 199,78 L 201,78 L 202,79 L 202,80 L 204,80 L 205,79 L 206,79 L 206,76 L 207,75 L 207,73 L 210,70 L 212,70 L 213,71 L 213,72 L 216,72 L 216,66 L 217,65 L 218,65 L 219,64 L 242,64 L 243,63 L 246,63 L 247,64 L 252,64 L 252,62 L 251,61 L 249,61 L 248,62 L 245,62 L 244,61 L 241,61 L 240,62 L 234,62 L 233,61 L 233,60 Z" fill="rgb(252,9,9)" id="path_c22408" stroke="none" /></svg>